%TF.GenerationSoftware,KiCad,Pcbnew,(6.0.4-0)*%
%TF.CreationDate,2022-06-08T11:17:20-07:00*%
%TF.ProjectId,DC_To_DC_Converter,44435f54-6f5f-4444-935f-436f6e766572,rev?*%
%TF.SameCoordinates,Original*%
%TF.FileFunction,Legend,Top*%
%TF.FilePolarity,Positive*%
%FSLAX46Y46*%
G04 Gerber Fmt 4.6, Leading zero omitted, Abs format (unit mm)*
G04 Created by KiCad (PCBNEW (6.0.4-0)) date 2022-06-08 11:17:20*
%MOMM*%
%LPD*%
G01*
G04 APERTURE LIST*
%ADD10C,0.150000*%
%ADD11C,0.120000*%
G04 APERTURE END LIST*
D10*
X118262380Y-28297142D02*
X118214761Y-28344761D01*
X118071904Y-28392380D01*
X117976666Y-28392380D01*
X117833809Y-28344761D01*
X117738571Y-28249523D01*
X117690952Y-28154285D01*
X117643333Y-27963809D01*
X117643333Y-27820952D01*
X117690952Y-27630476D01*
X117738571Y-27535238D01*
X117833809Y-27440000D01*
X117976666Y-27392380D01*
X118071904Y-27392380D01*
X118214761Y-27440000D01*
X118262380Y-27487619D01*
X119119523Y-28392380D02*
X119119523Y-27868571D01*
X119071904Y-27773333D01*
X118976666Y-27725714D01*
X118786190Y-27725714D01*
X118690952Y-27773333D01*
X119119523Y-28344761D02*
X119024285Y-28392380D01*
X118786190Y-28392380D01*
X118690952Y-28344761D01*
X118643333Y-28249523D01*
X118643333Y-28154285D01*
X118690952Y-28059047D01*
X118786190Y-28011428D01*
X119024285Y-28011428D01*
X119119523Y-27963809D01*
X120024285Y-28392380D02*
X120024285Y-27392380D01*
X120024285Y-28344761D02*
X119929047Y-28392380D01*
X119738571Y-28392380D01*
X119643333Y-28344761D01*
X119595714Y-28297142D01*
X119548095Y-28201904D01*
X119548095Y-27916190D01*
X119595714Y-27820952D01*
X119643333Y-27773333D01*
X119738571Y-27725714D01*
X119929047Y-27725714D01*
X120024285Y-27773333D01*
X120405238Y-27725714D02*
X120643333Y-28392380D01*
X120881428Y-27725714D02*
X120643333Y-28392380D01*
X120548095Y-28630476D01*
X120500476Y-28678095D01*
X120405238Y-28725714D01*
X121262380Y-27725714D02*
X121262380Y-28392380D01*
X121262380Y-27820952D02*
X121309999Y-27773333D01*
X121405238Y-27725714D01*
X121548095Y-27725714D01*
X121643333Y-27773333D01*
X121690952Y-27868571D01*
X121690952Y-28392380D01*
X121929047Y-28487619D02*
X122690952Y-28487619D01*
X122929047Y-28392380D02*
X122929047Y-27392380D01*
X123262380Y-28106666D01*
X123595714Y-27392380D01*
X123595714Y-28392380D01*
X124500476Y-28392380D02*
X124500476Y-27868571D01*
X124452857Y-27773333D01*
X124357619Y-27725714D01*
X124167142Y-27725714D01*
X124071904Y-27773333D01*
X124500476Y-28344761D02*
X124405238Y-28392380D01*
X124167142Y-28392380D01*
X124071904Y-28344761D01*
X124024285Y-28249523D01*
X124024285Y-28154285D01*
X124071904Y-28059047D01*
X124167142Y-28011428D01*
X124405238Y-28011428D01*
X124500476Y-27963809D01*
X125405238Y-28392380D02*
X125405238Y-27392380D01*
X125405238Y-28344761D02*
X125309999Y-28392380D01*
X125119523Y-28392380D01*
X125024285Y-28344761D01*
X124976666Y-28297142D01*
X124929047Y-28201904D01*
X124929047Y-27916190D01*
X124976666Y-27820952D01*
X125024285Y-27773333D01*
X125119523Y-27725714D01*
X125309999Y-27725714D01*
X125405238Y-27773333D01*
X126309999Y-28392380D02*
X126309999Y-27392380D01*
X126309999Y-28344761D02*
X126214761Y-28392380D01*
X126024285Y-28392380D01*
X125929047Y-28344761D01*
X125881428Y-28297142D01*
X125833809Y-28201904D01*
X125833809Y-27916190D01*
X125881428Y-27820952D01*
X125929047Y-27773333D01*
X126024285Y-27725714D01*
X126214761Y-27725714D01*
X126309999Y-27773333D01*
X126929047Y-28392380D02*
X126833809Y-28344761D01*
X126786190Y-28297142D01*
X126738571Y-28201904D01*
X126738571Y-27916190D01*
X126786190Y-27820952D01*
X126833809Y-27773333D01*
X126929047Y-27725714D01*
X127071904Y-27725714D01*
X127167142Y-27773333D01*
X127214761Y-27820952D01*
X127262380Y-27916190D01*
X127262380Y-28201904D01*
X127214761Y-28297142D01*
X127167142Y-28344761D01*
X127071904Y-28392380D01*
X126929047Y-28392380D01*
X128119523Y-28344761D02*
X128024285Y-28392380D01*
X127833809Y-28392380D01*
X127738571Y-28344761D01*
X127690952Y-28297142D01*
X127643333Y-28201904D01*
X127643333Y-27916190D01*
X127690952Y-27820952D01*
X127738571Y-27773333D01*
X127833809Y-27725714D01*
X128024285Y-27725714D01*
X128119523Y-27773333D01*
X128548095Y-28392380D02*
X128548095Y-27392380D01*
X128643333Y-28011428D02*
X128929047Y-28392380D01*
X128929047Y-27725714D02*
X128548095Y-28106666D01*
X129309999Y-28344761D02*
X129405238Y-28392380D01*
X129595714Y-28392380D01*
X129690952Y-28344761D01*
X129738571Y-28249523D01*
X129738571Y-28201904D01*
X129690952Y-28106666D01*
X129595714Y-28059047D01*
X129452857Y-28059047D01*
X129357619Y-28011428D01*
X129309999Y-27916190D01*
X129309999Y-27868571D01*
X129357619Y-27773333D01*
X129452857Y-27725714D01*
X129595714Y-27725714D01*
X129690952Y-27773333D01*
X129929047Y-28487619D02*
X130690952Y-28487619D01*
X130786190Y-27392380D02*
X131357619Y-27392380D01*
X131071904Y-28392380D02*
X131071904Y-27392380D01*
X132119523Y-28392380D02*
X132119523Y-27868571D01*
X132071904Y-27773333D01*
X131976666Y-27725714D01*
X131786190Y-27725714D01*
X131690952Y-27773333D01*
X132119523Y-28344761D02*
X132024285Y-28392380D01*
X131786190Y-28392380D01*
X131690952Y-28344761D01*
X131643333Y-28249523D01*
X131643333Y-28154285D01*
X131690952Y-28059047D01*
X131786190Y-28011428D01*
X132024285Y-28011428D01*
X132119523Y-27963809D01*
X132500476Y-27725714D02*
X132738571Y-28392380D01*
X132976666Y-27725714D02*
X132738571Y-28392380D01*
X132643333Y-28630476D01*
X132595714Y-28678095D01*
X132500476Y-28725714D01*
X133500476Y-28392380D02*
X133405238Y-28344761D01*
X133357619Y-28249523D01*
X133357619Y-27392380D01*
X134024285Y-28392380D02*
X133929047Y-28344761D01*
X133881428Y-28297142D01*
X133833809Y-28201904D01*
X133833809Y-27916190D01*
X133881428Y-27820952D01*
X133929047Y-27773333D01*
X134024285Y-27725714D01*
X134167142Y-27725714D01*
X134262380Y-27773333D01*
X134310000Y-27820952D01*
X134357619Y-27916190D01*
X134357619Y-28201904D01*
X134310000Y-28297142D01*
X134262380Y-28344761D01*
X134167142Y-28392380D01*
X134024285Y-28392380D01*
X134786190Y-28392380D02*
X134786190Y-27725714D01*
X134786190Y-27916190D02*
X134833809Y-27820952D01*
X134881428Y-27773333D01*
X134976666Y-27725714D01*
X135071904Y-27725714D01*
X135167142Y-28487619D02*
X135929047Y-28487619D01*
X136119523Y-28344761D02*
X136262380Y-28392380D01*
X136500476Y-28392380D01*
X136595714Y-28344761D01*
X136643333Y-28297142D01*
X136690952Y-28201904D01*
X136690952Y-28106666D01*
X136643333Y-28011428D01*
X136595714Y-27963809D01*
X136500476Y-27916190D01*
X136310000Y-27868571D01*
X136214761Y-27820952D01*
X136167142Y-27773333D01*
X136119523Y-27678095D01*
X136119523Y-27582857D01*
X136167142Y-27487619D01*
X136214761Y-27440000D01*
X136310000Y-27392380D01*
X136548095Y-27392380D01*
X136690952Y-27440000D01*
X137119523Y-28392380D02*
X137119523Y-27725714D01*
X137119523Y-27820952D02*
X137167142Y-27773333D01*
X137262380Y-27725714D01*
X137405238Y-27725714D01*
X137500476Y-27773333D01*
X137548095Y-27868571D01*
X137548095Y-28392380D01*
X137548095Y-27868571D02*
X137595714Y-27773333D01*
X137690952Y-27725714D01*
X137833809Y-27725714D01*
X137929047Y-27773333D01*
X137976666Y-27868571D01*
X137976666Y-28392380D01*
X138452857Y-28392380D02*
X138452857Y-27725714D01*
X138452857Y-27392380D02*
X138405238Y-27440000D01*
X138452857Y-27487619D01*
X138500476Y-27440000D01*
X138452857Y-27392380D01*
X138452857Y-27487619D01*
X138786190Y-27725714D02*
X139167142Y-27725714D01*
X138929047Y-27392380D02*
X138929047Y-28249523D01*
X138976666Y-28344761D01*
X139071904Y-28392380D01*
X139167142Y-28392380D01*
X139500476Y-28392380D02*
X139500476Y-27392380D01*
X139929047Y-28392380D02*
X139929047Y-27868571D01*
X139881428Y-27773333D01*
X139786190Y-27725714D01*
X139643333Y-27725714D01*
X139548095Y-27773333D01*
X139500476Y-27820952D01*
X140167142Y-28487619D02*
X140929047Y-28487619D01*
X141024285Y-27392380D02*
X141357619Y-28392380D01*
X141690952Y-27392380D01*
X141976666Y-27487619D02*
X142024285Y-27440000D01*
X142119523Y-27392380D01*
X142357619Y-27392380D01*
X142452857Y-27440000D01*
X142500476Y-27487619D01*
X142548095Y-27582857D01*
X142548095Y-27678095D01*
X142500476Y-27820952D01*
X141929047Y-28392380D01*
X142548095Y-28392380D01*
X142976666Y-28297142D02*
X143024285Y-28344761D01*
X142976666Y-28392380D01*
X142929047Y-28344761D01*
X142976666Y-28297142D01*
X142976666Y-28392380D01*
X143643333Y-27392380D02*
X143738571Y-27392380D01*
X143833809Y-27440000D01*
X143881428Y-27487619D01*
X143929047Y-27582857D01*
X143976666Y-27773333D01*
X143976666Y-28011428D01*
X143929047Y-28201904D01*
X143881428Y-28297142D01*
X143833809Y-28344761D01*
X143738571Y-28392380D01*
X143643333Y-28392380D01*
X143548095Y-28344761D01*
X143500476Y-28297142D01*
X143452857Y-28201904D01*
X143405238Y-28011428D01*
X143405238Y-27773333D01*
X143452857Y-27582857D01*
X143500476Y-27487619D01*
X143548095Y-27440000D01*
X143643333Y-27392380D01*
%TO.C,R4*%
X143326380Y-38266666D02*
X142850190Y-38600000D01*
X143326380Y-38838095D02*
X142326380Y-38838095D01*
X142326380Y-38457142D01*
X142374000Y-38361904D01*
X142421619Y-38314285D01*
X142516857Y-38266666D01*
X142659714Y-38266666D01*
X142754952Y-38314285D01*
X142802571Y-38361904D01*
X142850190Y-38457142D01*
X142850190Y-38838095D01*
X142659714Y-37409523D02*
X143326380Y-37409523D01*
X142278761Y-37647619D02*
X142993047Y-37885714D01*
X142993047Y-37266666D01*
%TO.C,R3*%
X143326380Y-32678666D02*
X142850190Y-33012000D01*
X143326380Y-33250095D02*
X142326380Y-33250095D01*
X142326380Y-32869142D01*
X142374000Y-32773904D01*
X142421619Y-32726285D01*
X142516857Y-32678666D01*
X142659714Y-32678666D01*
X142754952Y-32726285D01*
X142802571Y-32773904D01*
X142850190Y-32869142D01*
X142850190Y-33250095D01*
X142326380Y-32345333D02*
X142326380Y-31726285D01*
X142707333Y-32059619D01*
X142707333Y-31916761D01*
X142754952Y-31821523D01*
X142802571Y-31773904D01*
X142897809Y-31726285D01*
X143135904Y-31726285D01*
X143231142Y-31773904D01*
X143278761Y-31821523D01*
X143326380Y-31916761D01*
X143326380Y-32202476D01*
X143278761Y-32297714D01*
X143231142Y-32345333D01*
%TO.C,R2*%
X138246380Y-38266666D02*
X137770190Y-38600000D01*
X138246380Y-38838095D02*
X137246380Y-38838095D01*
X137246380Y-38457142D01*
X137294000Y-38361904D01*
X137341619Y-38314285D01*
X137436857Y-38266666D01*
X137579714Y-38266666D01*
X137674952Y-38314285D01*
X137722571Y-38361904D01*
X137770190Y-38457142D01*
X137770190Y-38838095D01*
X137341619Y-37885714D02*
X137294000Y-37838095D01*
X137246380Y-37742857D01*
X137246380Y-37504761D01*
X137294000Y-37409523D01*
X137341619Y-37361904D01*
X137436857Y-37314285D01*
X137532095Y-37314285D01*
X137674952Y-37361904D01*
X138246380Y-37933333D01*
X138246380Y-37314285D01*
%TO.C,R1*%
X138246380Y-32678666D02*
X137770190Y-33012000D01*
X138246380Y-33250095D02*
X137246380Y-33250095D01*
X137246380Y-32869142D01*
X137294000Y-32773904D01*
X137341619Y-32726285D01*
X137436857Y-32678666D01*
X137579714Y-32678666D01*
X137674952Y-32726285D01*
X137722571Y-32773904D01*
X137770190Y-32869142D01*
X137770190Y-33250095D01*
X138246380Y-31726285D02*
X138246380Y-32297714D01*
X138246380Y-32012000D02*
X137246380Y-32012000D01*
X137389238Y-32107238D01*
X137484476Y-32202476D01*
X137532095Y-32297714D01*
%TO.C,C1*%
X166683333Y-40827142D02*
X166635714Y-40874761D01*
X166492857Y-40922380D01*
X166397619Y-40922380D01*
X166254761Y-40874761D01*
X166159523Y-40779523D01*
X166111904Y-40684285D01*
X166064285Y-40493809D01*
X166064285Y-40350952D01*
X166111904Y-40160476D01*
X166159523Y-40065238D01*
X166254761Y-39970000D01*
X166397619Y-39922380D01*
X166492857Y-39922380D01*
X166635714Y-39970000D01*
X166683333Y-40017619D01*
X167635714Y-40922380D02*
X167064285Y-40922380D01*
X167350000Y-40922380D02*
X167350000Y-39922380D01*
X167254761Y-40065238D01*
X167159523Y-40160476D01*
X167064285Y-40208095D01*
%TO.C,FB1*%
X166627886Y-30408571D02*
X166294553Y-30408571D01*
X166294553Y-30932380D02*
X166294553Y-29932380D01*
X166770743Y-29932380D01*
X167485029Y-30408571D02*
X167627886Y-30456190D01*
X167675505Y-30503809D01*
X167723124Y-30599047D01*
X167723124Y-30741904D01*
X167675505Y-30837142D01*
X167627886Y-30884761D01*
X167532648Y-30932380D01*
X167151696Y-30932380D01*
X167151696Y-29932380D01*
X167485029Y-29932380D01*
X167580267Y-29980000D01*
X167627886Y-30027619D01*
X167675505Y-30122857D01*
X167675505Y-30218095D01*
X167627886Y-30313333D01*
X167580267Y-30360952D01*
X167485029Y-30408571D01*
X167151696Y-30408571D01*
X168675505Y-30932380D02*
X168104077Y-30932380D01*
X168389791Y-30932380D02*
X168389791Y-29932380D01*
X168294553Y-30075238D01*
X168199315Y-30170476D01*
X168104077Y-30218095D01*
%TO.C,J1*%
X172386666Y-62952380D02*
X172386666Y-63666666D01*
X172339047Y-63809523D01*
X172243809Y-63904761D01*
X172100952Y-63952380D01*
X172005714Y-63952380D01*
X173386666Y-63952380D02*
X172815238Y-63952380D01*
X173100952Y-63952380D02*
X173100952Y-62952380D01*
X173005714Y-63095238D01*
X172910476Y-63190476D01*
X172815238Y-63238095D01*
%TO.C,D1*%
X154201904Y-66112380D02*
X154201904Y-65112380D01*
X154440000Y-65112380D01*
X154582857Y-65160000D01*
X154678095Y-65255238D01*
X154725714Y-65350476D01*
X154773333Y-65540952D01*
X154773333Y-65683809D01*
X154725714Y-65874285D01*
X154678095Y-65969523D01*
X154582857Y-66064761D01*
X154440000Y-66112380D01*
X154201904Y-66112380D01*
X155725714Y-66112380D02*
X155154285Y-66112380D01*
X155440000Y-66112380D02*
X155440000Y-65112380D01*
X155344761Y-65255238D01*
X155249523Y-65350476D01*
X155154285Y-65398095D01*
X147058095Y-66832380D02*
X147058095Y-65832380D01*
X147629523Y-66832380D02*
X147200952Y-66260952D01*
X147629523Y-65832380D02*
X147058095Y-66403809D01*
%TO.C,U1*%
X155883095Y-51222380D02*
X155883095Y-52031904D01*
X155930714Y-52127142D01*
X155978333Y-52174761D01*
X156073571Y-52222380D01*
X156264047Y-52222380D01*
X156359285Y-52174761D01*
X156406904Y-52127142D01*
X156454523Y-52031904D01*
X156454523Y-51222380D01*
X157454523Y-52222380D02*
X156883095Y-52222380D01*
X157168809Y-52222380D02*
X157168809Y-51222380D01*
X157073571Y-51365238D01*
X156978333Y-51460476D01*
X156883095Y-51508095D01*
%TO.C,C2*%
X128583333Y-30667142D02*
X128535714Y-30714761D01*
X128392857Y-30762380D01*
X128297619Y-30762380D01*
X128154761Y-30714761D01*
X128059523Y-30619523D01*
X128011904Y-30524285D01*
X127964285Y-30333809D01*
X127964285Y-30190952D01*
X128011904Y-30000476D01*
X128059523Y-29905238D01*
X128154761Y-29810000D01*
X128297619Y-29762380D01*
X128392857Y-29762380D01*
X128535714Y-29810000D01*
X128583333Y-29857619D01*
X128964285Y-29857619D02*
X129011904Y-29810000D01*
X129107142Y-29762380D01*
X129345238Y-29762380D01*
X129440476Y-29810000D01*
X129488095Y-29857619D01*
X129535714Y-29952857D01*
X129535714Y-30048095D01*
X129488095Y-30190952D01*
X128916666Y-30762380D01*
X129535714Y-30762380D01*
%TO.C,J2*%
X152066666Y-43562380D02*
X152066666Y-44276666D01*
X152019047Y-44419523D01*
X151923809Y-44514761D01*
X151780952Y-44562380D01*
X151685714Y-44562380D01*
X152495238Y-43657619D02*
X152542857Y-43610000D01*
X152638095Y-43562380D01*
X152876190Y-43562380D01*
X152971428Y-43610000D01*
X153019047Y-43657619D01*
X153066666Y-43752857D01*
X153066666Y-43848095D01*
X153019047Y-43990952D01*
X152447619Y-44562380D01*
X153066666Y-44562380D01*
%TO.C,L1*%
X131913333Y-41332380D02*
X131437142Y-41332380D01*
X131437142Y-40332380D01*
X132770476Y-41332380D02*
X132199047Y-41332380D01*
X132484761Y-41332380D02*
X132484761Y-40332380D01*
X132389523Y-40475238D01*
X132294285Y-40570476D01*
X132199047Y-40618095D01*
D11*
%TO.C,R4*%
X141959000Y-37872936D02*
X141959000Y-38327064D01*
X140489000Y-37872936D02*
X140489000Y-38327064D01*
%TO.C,R3*%
X141959000Y-32284936D02*
X141959000Y-32739064D01*
X140489000Y-32284936D02*
X140489000Y-32739064D01*
%TO.C,R2*%
X136879000Y-37872936D02*
X136879000Y-38327064D01*
X135409000Y-37872936D02*
X135409000Y-38327064D01*
%TO.C,R1*%
X136879000Y-32284936D02*
X136879000Y-32739064D01*
X135409000Y-32284936D02*
X135409000Y-32739064D01*
%TO.C,C1*%
X170411000Y-43686000D02*
X170411000Y-47754000D01*
X168211000Y-46760000D02*
X168211000Y-49570000D01*
X167971000Y-41795000D02*
X167971000Y-44680000D01*
X170451000Y-43756000D02*
X170451000Y-47684000D01*
X168571000Y-42016000D02*
X168571000Y-44680000D01*
X169211000Y-46760000D02*
X169211000Y-49058000D01*
X170211000Y-43375000D02*
X170211000Y-48065000D01*
X169971000Y-43069000D02*
X169971000Y-48371000D01*
X168051000Y-41818000D02*
X168051000Y-44680000D01*
X167891000Y-41773000D02*
X167891000Y-44680000D01*
X167210000Y-41655000D02*
X167210000Y-49785000D01*
X169531000Y-46760000D02*
X169531000Y-48810000D01*
X170771000Y-44491000D02*
X170771000Y-46949000D01*
X168171000Y-46760000D02*
X168171000Y-49583000D01*
X168251000Y-46760000D02*
X168251000Y-49555000D01*
X167611000Y-46760000D02*
X167611000Y-49730000D01*
X169731000Y-42813000D02*
X169731000Y-48627000D01*
X168211000Y-41870000D02*
X168211000Y-44680000D01*
X168491000Y-46760000D02*
X168491000Y-49460000D01*
X168891000Y-46760000D02*
X168891000Y-49260000D01*
X168611000Y-42034000D02*
X168611000Y-44680000D01*
X169051000Y-46760000D02*
X169051000Y-49164000D01*
X170811000Y-44622000D02*
X170811000Y-46818000D01*
X162440302Y-43405000D02*
X163240302Y-43405000D01*
X168771000Y-42114000D02*
X168771000Y-44680000D01*
X167771000Y-41744000D02*
X167771000Y-44680000D01*
X168171000Y-41857000D02*
X168171000Y-44680000D01*
X169491000Y-42596000D02*
X169491000Y-44680000D01*
X170091000Y-43215000D02*
X170091000Y-48225000D01*
X168131000Y-46760000D02*
X168131000Y-49597000D01*
X170331000Y-43554000D02*
X170331000Y-47886000D01*
X167811000Y-41753000D02*
X167811000Y-44680000D01*
X169571000Y-42665000D02*
X169571000Y-44680000D01*
X170891000Y-44952000D02*
X170891000Y-46488000D01*
X168291000Y-46760000D02*
X168291000Y-49541000D01*
X168851000Y-46760000D02*
X168851000Y-49282000D01*
X168451000Y-46760000D02*
X168451000Y-49477000D01*
X169451000Y-46760000D02*
X169451000Y-48876000D01*
X168731000Y-42093000D02*
X168731000Y-44680000D01*
X169011000Y-46760000D02*
X169011000Y-49189000D01*
X168731000Y-46760000D02*
X168731000Y-49347000D01*
X167410000Y-41678000D02*
X167410000Y-49762000D01*
X168091000Y-46760000D02*
X168091000Y-49609000D01*
X169251000Y-42411000D02*
X169251000Y-44680000D01*
X169091000Y-46760000D02*
X169091000Y-49138000D01*
X168931000Y-42203000D02*
X168931000Y-44680000D01*
X169611000Y-42701000D02*
X169611000Y-44680000D01*
X167450000Y-41683000D02*
X167450000Y-49757000D01*
X166850000Y-41640000D02*
X166850000Y-49800000D01*
X167130000Y-41649000D02*
X167130000Y-49791000D01*
X168291000Y-41899000D02*
X168291000Y-44680000D01*
X169171000Y-42355000D02*
X169171000Y-44680000D01*
X170531000Y-43907000D02*
X170531000Y-47533000D01*
X168811000Y-46760000D02*
X168811000Y-49304000D01*
X167571000Y-41703000D02*
X167571000Y-44680000D01*
X168371000Y-46760000D02*
X168371000Y-49510000D01*
X168091000Y-41831000D02*
X168091000Y-44680000D01*
X162840302Y-43005000D02*
X162840302Y-43805000D01*
X169371000Y-42500000D02*
X169371000Y-44680000D01*
X167651000Y-41718000D02*
X167651000Y-44680000D01*
X169291000Y-46760000D02*
X169291000Y-49000000D01*
X169691000Y-42775000D02*
X169691000Y-48665000D01*
X168771000Y-46760000D02*
X168771000Y-49326000D01*
X170251000Y-43433000D02*
X170251000Y-48007000D01*
X167571000Y-46760000D02*
X167571000Y-49737000D01*
X169131000Y-46760000D02*
X169131000Y-49112000D01*
X169451000Y-42564000D02*
X169451000Y-44680000D01*
X170131000Y-43266000D02*
X170131000Y-48174000D01*
X170371000Y-43618000D02*
X170371000Y-47822000D01*
X167811000Y-46760000D02*
X167811000Y-49687000D01*
X167050000Y-41644000D02*
X167050000Y-49796000D01*
X169091000Y-42302000D02*
X169091000Y-44680000D01*
X167370000Y-41672000D02*
X167370000Y-49768000D01*
X170571000Y-43989000D02*
X170571000Y-47451000D01*
X167330000Y-41668000D02*
X167330000Y-49772000D01*
X167250000Y-41659000D02*
X167250000Y-49781000D01*
X167971000Y-46760000D02*
X167971000Y-49645000D01*
X169171000Y-46760000D02*
X169171000Y-49085000D01*
X167771000Y-46760000D02*
X167771000Y-49696000D01*
X170691000Y-44267000D02*
X170691000Y-47173000D01*
X167691000Y-41726000D02*
X167691000Y-44680000D01*
X167010000Y-41643000D02*
X167010000Y-49797000D01*
X170051000Y-43164000D02*
X170051000Y-48276000D01*
X169571000Y-46760000D02*
X169571000Y-48775000D01*
X167851000Y-46760000D02*
X167851000Y-49677000D01*
X168251000Y-41885000D02*
X168251000Y-44680000D01*
X168651000Y-46760000D02*
X168651000Y-49386000D01*
X170291000Y-43492000D02*
X170291000Y-47948000D01*
X169531000Y-42630000D02*
X169531000Y-44680000D01*
X167090000Y-41646000D02*
X167090000Y-49794000D01*
X169371000Y-46760000D02*
X169371000Y-48940000D01*
X169931000Y-43023000D02*
X169931000Y-48417000D01*
X170491000Y-43830000D02*
X170491000Y-47610000D01*
X169251000Y-46760000D02*
X169251000Y-49029000D01*
X169051000Y-42276000D02*
X169051000Y-44680000D01*
X169811000Y-42894000D02*
X169811000Y-48546000D01*
X168691000Y-46760000D02*
X168691000Y-49367000D01*
X168371000Y-41930000D02*
X168371000Y-44680000D01*
X168611000Y-46760000D02*
X168611000Y-49406000D01*
X170851000Y-44772000D02*
X170851000Y-46668000D01*
X169411000Y-46760000D02*
X169411000Y-48909000D01*
X170931000Y-45187000D02*
X170931000Y-46253000D01*
X169891000Y-42979000D02*
X169891000Y-48461000D01*
X170171000Y-43320000D02*
X170171000Y-48120000D01*
X168451000Y-41963000D02*
X168451000Y-44680000D01*
X167651000Y-46760000D02*
X167651000Y-49722000D01*
X169331000Y-42470000D02*
X169331000Y-44680000D01*
X169651000Y-42737000D02*
X169651000Y-48703000D01*
X168411000Y-46760000D02*
X168411000Y-49494000D01*
X167290000Y-41663000D02*
X167290000Y-49777000D01*
X169851000Y-42936000D02*
X169851000Y-48504000D01*
X168971000Y-42227000D02*
X168971000Y-44680000D01*
X168651000Y-42054000D02*
X168651000Y-44680000D01*
X167891000Y-46760000D02*
X167891000Y-49667000D01*
X167851000Y-41763000D02*
X167851000Y-44680000D01*
X169011000Y-42251000D02*
X169011000Y-44680000D01*
X167611000Y-41710000D02*
X167611000Y-44680000D01*
X166890000Y-41640000D02*
X166890000Y-49800000D01*
X170011000Y-43116000D02*
X170011000Y-48324000D01*
X170611000Y-44075000D02*
X170611000Y-47365000D01*
X168411000Y-41946000D02*
X168411000Y-44680000D01*
X168131000Y-41843000D02*
X168131000Y-44680000D01*
X167170000Y-41652000D02*
X167170000Y-49788000D01*
X168531000Y-46760000D02*
X168531000Y-49442000D01*
X169331000Y-46760000D02*
X169331000Y-48970000D01*
X166930000Y-41640000D02*
X166930000Y-49800000D01*
X169131000Y-42328000D02*
X169131000Y-44680000D01*
X170731000Y-44374000D02*
X170731000Y-47066000D01*
X168971000Y-46760000D02*
X168971000Y-49213000D01*
X168491000Y-41980000D02*
X168491000Y-44680000D01*
X169611000Y-46760000D02*
X169611000Y-48739000D01*
X167691000Y-46760000D02*
X167691000Y-49714000D01*
X168011000Y-46760000D02*
X168011000Y-49634000D01*
X168931000Y-46760000D02*
X168931000Y-49237000D01*
X169771000Y-42853000D02*
X169771000Y-48587000D01*
X168691000Y-42073000D02*
X168691000Y-44680000D01*
X169491000Y-46760000D02*
X169491000Y-48844000D01*
X169211000Y-42382000D02*
X169211000Y-44680000D01*
X168571000Y-46760000D02*
X168571000Y-49424000D01*
X168851000Y-42158000D02*
X168851000Y-44680000D01*
X168331000Y-46760000D02*
X168331000Y-49525000D01*
X168811000Y-42136000D02*
X168811000Y-44680000D01*
X168531000Y-41998000D02*
X168531000Y-44680000D01*
X166970000Y-41641000D02*
X166970000Y-49799000D01*
X168891000Y-42180000D02*
X168891000Y-44680000D01*
X169411000Y-42531000D02*
X169411000Y-44680000D01*
X167731000Y-46760000D02*
X167731000Y-49705000D01*
X168011000Y-41806000D02*
X168011000Y-44680000D01*
X169291000Y-42440000D02*
X169291000Y-44680000D01*
X167530000Y-41696000D02*
X167530000Y-49744000D01*
X167731000Y-41735000D02*
X167731000Y-44680000D01*
X167490000Y-41690000D02*
X167490000Y-49750000D01*
X167931000Y-41784000D02*
X167931000Y-44680000D01*
X170651000Y-44168000D02*
X170651000Y-47272000D01*
X168051000Y-46760000D02*
X168051000Y-49622000D01*
X167931000Y-46760000D02*
X167931000Y-49656000D01*
X168331000Y-41915000D02*
X168331000Y-44680000D01*
X170970000Y-45720000D02*
G75*
G03*
X170970000Y-45720000I-4120000J0D01*
G01*
%TO.C,FB1*%
X165100000Y-37592000D02*
G75*
G03*
X169940068Y-37860068I2540000J2032000D01*
G01*
X170688000Y-36830000D02*
G75*
G03*
X170688000Y-34290000I-508000J1270000D01*
G01*
X164592000Y-34290000D02*
G75*
G03*
X164592000Y-36830000I508000J-1270000D01*
G01*
X169926001Y-33273999D02*
G75*
G03*
X165115535Y-33540428I-2286001J-2286001D01*
G01*
%TO.C,J1*%
X177800000Y-64480000D02*
X177800000Y-72680000D01*
X167640000Y-64480000D02*
X167640000Y-72680000D01*
X167640000Y-72680000D02*
X177800000Y-72680000D01*
X167640000Y-64480000D02*
X177800000Y-64480000D01*
X172720000Y-72680000D02*
X172720000Y-64480000D01*
%TO.C,D1*%
X152160000Y-66660000D02*
X152160000Y-70500000D01*
X151020000Y-70500000D02*
X158860000Y-70500000D01*
X148760000Y-68580000D02*
X151020000Y-68580000D01*
X152280000Y-66660000D02*
X152280000Y-70500000D01*
X161120000Y-68580000D02*
X158860000Y-68580000D01*
X158860000Y-70500000D02*
X158860000Y-66660000D01*
X151020000Y-66660000D02*
X151020000Y-70500000D01*
X152400000Y-66660000D02*
X152400000Y-70500000D01*
X158860000Y-66660000D02*
X151020000Y-66660000D01*
%TO.C,U1*%
X153695000Y-62670000D02*
X152595000Y-62670000D01*
X155195000Y-63620000D02*
X153695000Y-63620000D01*
X155195000Y-53220000D02*
X153695000Y-53220000D01*
X153695000Y-53220000D02*
X153695000Y-54170000D01*
X153695000Y-63620000D02*
X153695000Y-62670000D01*
X153695000Y-54170000D02*
X148570000Y-54170000D01*
%TO.C,C2*%
X130951000Y-32116000D02*
X130951000Y-34520000D01*
X128790000Y-31480000D02*
X128790000Y-39640000D01*
X131191000Y-36600000D02*
X131191000Y-38840000D01*
X130751000Y-31998000D02*
X130751000Y-34520000D01*
X130351000Y-36600000D02*
X130351000Y-39317000D01*
X129951000Y-36600000D02*
X129951000Y-39462000D01*
X130311000Y-31786000D02*
X130311000Y-34520000D01*
X131031000Y-32168000D02*
X131031000Y-34520000D01*
X130271000Y-31770000D02*
X130271000Y-34520000D01*
X131391000Y-36600000D02*
X131391000Y-38684000D01*
X130591000Y-36600000D02*
X130591000Y-39207000D01*
X129471000Y-36600000D02*
X129471000Y-39577000D01*
X124340302Y-33245000D02*
X125140302Y-33245000D01*
X130471000Y-31856000D02*
X130471000Y-34520000D01*
X129871000Y-36600000D02*
X129871000Y-39485000D01*
X130551000Y-31894000D02*
X130551000Y-34520000D01*
X128990000Y-31486000D02*
X128990000Y-39634000D01*
X130071000Y-36600000D02*
X130071000Y-39423000D01*
X130271000Y-36600000D02*
X130271000Y-39350000D01*
X132271000Y-33458000D02*
X132271000Y-37662000D01*
X129871000Y-31635000D02*
X129871000Y-34520000D01*
X132551000Y-34008000D02*
X132551000Y-37112000D01*
X130711000Y-31976000D02*
X130711000Y-34520000D01*
X132071000Y-33160000D02*
X132071000Y-37960000D01*
X129711000Y-31593000D02*
X129711000Y-34520000D01*
X132231000Y-33394000D02*
X132231000Y-37726000D01*
X131311000Y-32371000D02*
X131311000Y-34520000D01*
X132791000Y-34792000D02*
X132791000Y-36328000D01*
X131271000Y-36600000D02*
X131271000Y-38780000D01*
X124740302Y-32845000D02*
X124740302Y-33645000D01*
X130911000Y-36600000D02*
X130911000Y-39029000D01*
X131151000Y-32251000D02*
X131151000Y-34520000D01*
X130791000Y-32020000D02*
X130791000Y-34520000D01*
X132031000Y-33106000D02*
X132031000Y-38014000D01*
X131231000Y-32310000D02*
X131231000Y-34520000D01*
X131511000Y-36600000D02*
X131511000Y-38579000D01*
X130391000Y-36600000D02*
X130391000Y-39300000D01*
X129511000Y-36600000D02*
X129511000Y-39570000D01*
X132431000Y-33747000D02*
X132431000Y-37373000D01*
X130151000Y-31725000D02*
X130151000Y-34520000D01*
X131711000Y-32734000D02*
X131711000Y-38386000D01*
X130431000Y-31838000D02*
X130431000Y-34520000D01*
X131431000Y-36600000D02*
X131431000Y-38650000D01*
X131191000Y-32280000D02*
X131191000Y-34520000D01*
X130111000Y-36600000D02*
X130111000Y-39410000D01*
X130511000Y-36600000D02*
X130511000Y-39246000D01*
X129070000Y-31492000D02*
X129070000Y-39628000D01*
X130671000Y-31954000D02*
X130671000Y-34520000D01*
X129671000Y-36600000D02*
X129671000Y-39536000D01*
X131271000Y-32340000D02*
X131271000Y-34520000D01*
X130711000Y-36600000D02*
X130711000Y-39144000D01*
X131631000Y-32653000D02*
X131631000Y-38467000D01*
X129631000Y-36600000D02*
X129631000Y-39545000D01*
X131551000Y-32577000D02*
X131551000Y-38543000D01*
X130191000Y-31739000D02*
X130191000Y-34520000D01*
X131911000Y-32956000D02*
X131911000Y-38164000D01*
X131111000Y-36600000D02*
X131111000Y-38898000D01*
X131831000Y-32863000D02*
X131831000Y-38257000D01*
X132151000Y-33273000D02*
X132151000Y-37847000D01*
X131591000Y-32615000D02*
X131591000Y-38505000D01*
X129591000Y-36600000D02*
X129591000Y-39554000D01*
X129831000Y-36600000D02*
X129831000Y-39496000D01*
X130991000Y-36600000D02*
X130991000Y-38978000D01*
X130871000Y-36600000D02*
X130871000Y-39053000D01*
X129751000Y-31603000D02*
X129751000Y-34520000D01*
X130591000Y-31913000D02*
X130591000Y-34520000D01*
X132311000Y-33526000D02*
X132311000Y-37594000D01*
X132351000Y-33596000D02*
X132351000Y-37524000D01*
X129991000Y-31671000D02*
X129991000Y-34520000D01*
X129270000Y-31512000D02*
X129270000Y-39608000D01*
X129751000Y-36600000D02*
X129751000Y-39517000D01*
X130071000Y-31697000D02*
X130071000Y-34520000D01*
X131471000Y-36600000D02*
X131471000Y-38615000D01*
X130831000Y-36600000D02*
X130831000Y-39077000D01*
X132511000Y-33915000D02*
X132511000Y-37205000D01*
X130911000Y-32091000D02*
X130911000Y-34520000D01*
X129671000Y-31584000D02*
X129671000Y-34520000D01*
X131951000Y-33004000D02*
X131951000Y-38116000D01*
X129110000Y-31495000D02*
X129110000Y-39625000D01*
X128830000Y-31480000D02*
X128830000Y-39640000D01*
X130511000Y-31874000D02*
X130511000Y-34520000D01*
X131031000Y-36600000D02*
X131031000Y-38952000D01*
X129230000Y-31508000D02*
X129230000Y-39612000D01*
X132671000Y-34331000D02*
X132671000Y-36789000D01*
X130031000Y-31683000D02*
X130031000Y-34520000D01*
X131311000Y-36600000D02*
X131311000Y-38749000D01*
X128950000Y-31484000D02*
X128950000Y-39636000D01*
X129591000Y-31566000D02*
X129591000Y-34520000D01*
X130111000Y-31710000D02*
X130111000Y-34520000D01*
X129551000Y-31558000D02*
X129551000Y-34520000D01*
X130311000Y-36600000D02*
X130311000Y-39334000D01*
X131231000Y-36600000D02*
X131231000Y-38810000D01*
X129471000Y-31543000D02*
X129471000Y-34520000D01*
X129030000Y-31489000D02*
X129030000Y-39631000D01*
X132711000Y-34462000D02*
X132711000Y-36658000D01*
X130871000Y-32067000D02*
X130871000Y-34520000D01*
X131151000Y-36600000D02*
X131151000Y-38869000D01*
X129511000Y-31550000D02*
X129511000Y-34520000D01*
X130031000Y-36600000D02*
X130031000Y-39437000D01*
X131351000Y-32404000D02*
X131351000Y-34520000D01*
X132591000Y-34107000D02*
X132591000Y-37013000D01*
X129951000Y-31658000D02*
X129951000Y-34520000D01*
X131791000Y-32819000D02*
X131791000Y-38301000D01*
X130751000Y-36600000D02*
X130751000Y-39122000D01*
X130551000Y-36600000D02*
X130551000Y-39226000D01*
X131671000Y-32693000D02*
X131671000Y-38427000D01*
X130991000Y-32142000D02*
X130991000Y-34520000D01*
X131991000Y-33055000D02*
X131991000Y-38065000D01*
X129551000Y-36600000D02*
X129551000Y-39562000D01*
X129150000Y-31499000D02*
X129150000Y-39621000D01*
X130631000Y-31933000D02*
X130631000Y-34520000D01*
X129991000Y-36600000D02*
X129991000Y-39449000D01*
X132831000Y-35027000D02*
X132831000Y-36093000D01*
X128870000Y-31481000D02*
X128870000Y-39639000D01*
X128910000Y-31483000D02*
X128910000Y-39637000D01*
X129350000Y-31523000D02*
X129350000Y-39597000D01*
X130631000Y-36600000D02*
X130631000Y-39187000D01*
X130391000Y-31820000D02*
X130391000Y-34520000D01*
X128750000Y-31480000D02*
X128750000Y-39640000D01*
X130151000Y-36600000D02*
X130151000Y-39395000D01*
X129911000Y-36600000D02*
X129911000Y-39474000D01*
X129631000Y-31575000D02*
X129631000Y-34520000D01*
X129310000Y-31518000D02*
X129310000Y-39602000D01*
X132471000Y-33829000D02*
X132471000Y-37291000D01*
X132111000Y-33215000D02*
X132111000Y-37905000D01*
X131511000Y-32541000D02*
X131511000Y-34520000D01*
X129911000Y-31646000D02*
X129911000Y-34520000D01*
X131871000Y-32909000D02*
X131871000Y-38211000D01*
X131471000Y-32505000D02*
X131471000Y-34520000D01*
X129390000Y-31530000D02*
X129390000Y-39590000D01*
X132751000Y-34612000D02*
X132751000Y-36508000D01*
X131351000Y-36600000D02*
X131351000Y-38716000D01*
X129430000Y-31536000D02*
X129430000Y-39584000D01*
X131391000Y-32436000D02*
X131391000Y-34520000D01*
X130231000Y-31755000D02*
X130231000Y-34520000D01*
X132191000Y-33332000D02*
X132191000Y-37788000D01*
X129711000Y-36600000D02*
X129711000Y-39527000D01*
X131751000Y-32776000D02*
X131751000Y-38344000D01*
X130431000Y-36600000D02*
X130431000Y-39282000D01*
X130351000Y-31803000D02*
X130351000Y-34520000D01*
X132391000Y-33670000D02*
X132391000Y-37450000D01*
X131071000Y-36600000D02*
X131071000Y-38925000D01*
X129791000Y-31613000D02*
X129791000Y-34520000D01*
X131071000Y-32195000D02*
X131071000Y-34520000D01*
X130231000Y-36600000D02*
X130231000Y-39365000D01*
X130671000Y-36600000D02*
X130671000Y-39166000D01*
X129791000Y-36600000D02*
X129791000Y-39507000D01*
X131431000Y-32470000D02*
X131431000Y-34520000D01*
X132631000Y-34214000D02*
X132631000Y-36906000D01*
X131111000Y-32222000D02*
X131111000Y-34520000D01*
X130951000Y-36600000D02*
X130951000Y-39004000D01*
X130831000Y-32043000D02*
X130831000Y-34520000D01*
X129190000Y-31503000D02*
X129190000Y-39617000D01*
X129831000Y-31624000D02*
X129831000Y-34520000D01*
X130791000Y-36600000D02*
X130791000Y-39100000D01*
X130191000Y-36600000D02*
X130191000Y-39381000D01*
X130471000Y-36600000D02*
X130471000Y-39264000D01*
X132870000Y-35560000D02*
G75*
G03*
X132870000Y-35560000I-4120000J0D01*
G01*
%TO.C,J2*%
X145090000Y-27820000D02*
X145090000Y-28340000D01*
X159060000Y-28340000D02*
X159710000Y-28340000D01*
X159060000Y-43300000D02*
X159060000Y-39970000D01*
X159710000Y-27820000D02*
X145090000Y-27820000D01*
X145740000Y-36450000D02*
X145740000Y-28340000D01*
X159060000Y-28340000D02*
X159060000Y-36450000D01*
X156800000Y-43520000D02*
X155000000Y-43520000D01*
X145090000Y-28340000D02*
X145740000Y-28340000D01*
X159710000Y-28340000D02*
X159710000Y-27820000D01*
X145740000Y-43300000D02*
X145740000Y-39970000D01*
X159060000Y-43300000D02*
X145740000Y-43300000D01*
%TO.C,L1*%
X144580000Y-59180000D02*
X144580000Y-69880000D01*
X119580000Y-41880000D02*
X144580000Y-41880000D01*
X119580000Y-41880000D02*
X119580000Y-52580000D01*
X144580000Y-69880000D02*
X119580000Y-69880000D01*
X119580000Y-69880000D02*
X119580000Y-59180000D01*
X144580000Y-41880000D02*
X144580000Y-52580000D01*
%TD*%
M02*
