%FSLAX45Y45*%
G04 Gerber Fmt 4.5, Leading zero omitted, Abs format (unit mm)*
G04 Created by KiCad (PCBNEW (6.0.4-0)) date 2022-06-08 11:17:16*
%MOMM*%
%LPD*%
G01*
G04 APERTURE LIST*
%TA.AperFunction,Profile*%
%ADD10C,0.050000*%
%TD*%
%ADD11C,0.200000*%
G04 APERTURE END LIST*
D10*
X18034000Y-2540000D02*
X18034000Y-7366000D01*
X18034000Y-7366000D02*
X11684000Y-7366000D01*
X11684000Y-7366000D02*
X11684000Y-2540000D01*
X11684000Y-2540000D02*
X18034000Y-2540000D01*
D11*
X11939119Y-7678976D02*
X11939119Y-7478976D01*
X11986738Y-7478976D01*
X12015309Y-7488500D01*
X12034357Y-7507548D01*
X12043881Y-7526595D01*
X12053405Y-7564690D01*
X12053405Y-7593262D01*
X12043881Y-7631357D01*
X12034357Y-7650405D01*
X12015309Y-7669452D01*
X11986738Y-7678976D01*
X11939119Y-7678976D01*
X12139119Y-7678976D02*
X12139119Y-7545643D01*
X12139119Y-7583738D02*
X12148643Y-7564690D01*
X12158167Y-7555167D01*
X12177214Y-7545643D01*
X12196262Y-7545643D01*
X12262928Y-7678976D02*
X12262928Y-7545643D01*
X12262928Y-7478976D02*
X12253405Y-7488500D01*
X12262928Y-7498024D01*
X12272452Y-7488500D01*
X12262928Y-7478976D01*
X12262928Y-7498024D01*
X12386738Y-7678976D02*
X12367690Y-7669452D01*
X12358167Y-7650405D01*
X12358167Y-7478976D01*
X12491500Y-7678976D02*
X12472452Y-7669452D01*
X12462928Y-7650405D01*
X12462928Y-7478976D01*
X12720071Y-7678976D02*
X12720071Y-7478976D01*
X12786738Y-7621833D01*
X12853405Y-7478976D01*
X12853405Y-7678976D01*
X13034357Y-7678976D02*
X13034357Y-7574214D01*
X13024833Y-7555167D01*
X13005786Y-7545643D01*
X12967690Y-7545643D01*
X12948643Y-7555167D01*
X13034357Y-7669452D02*
X13015309Y-7678976D01*
X12967690Y-7678976D01*
X12948643Y-7669452D01*
X12939119Y-7650405D01*
X12939119Y-7631357D01*
X12948643Y-7612309D01*
X12967690Y-7602786D01*
X13015309Y-7602786D01*
X13034357Y-7593262D01*
X13129595Y-7545643D02*
X13129595Y-7745643D01*
X13129595Y-7555167D02*
X13148643Y-7545643D01*
X13186738Y-7545643D01*
X13205786Y-7555167D01*
X13215309Y-7564690D01*
X13224833Y-7583738D01*
X13224833Y-7640881D01*
X13215309Y-7659928D01*
X13205786Y-7669452D01*
X13186738Y-7678976D01*
X13148643Y-7678976D01*
X13129595Y-7669452D01*
X13310548Y-7659928D02*
X13320071Y-7669452D01*
X13310548Y-7678976D01*
X13301024Y-7669452D01*
X13310548Y-7659928D01*
X13310548Y-7678976D01*
X13310548Y-7555167D02*
X13320071Y-7564690D01*
X13310548Y-7574214D01*
X13301024Y-7564690D01*
X13310548Y-7555167D01*
X13310548Y-7574214D01*
M02*
