%TF.GenerationSoftware,KiCad,Pcbnew,(6.0.4-0)*%
%TF.CreationDate,2022-06-08T11:17:20-07:00*%
%TF.ProjectId,DC_To_DC_Converter,44435f54-6f5f-4444-935f-436f6e766572,rev?*%
%TF.SameCoordinates,Original*%
%TF.FileFunction,Copper,L2,Bot*%
%TF.FilePolarity,Positive*%
%FSLAX46Y46*%
G04 Gerber Fmt 4.6, Leading zero omitted, Abs format (unit mm)*
G04 Created by KiCad (PCBNEW (6.0.4-0)) date 2022-06-08 11:17:20*
%MOMM*%
%LPD*%
G01*
G04 APERTURE LIST*
%TA.AperFunction,ComponentPad*%
%ADD10R,1.600000X1.600000*%
%TD*%
%TA.AperFunction,ComponentPad*%
%ADD11C,1.600000*%
%TD*%
%TA.AperFunction,ComponentPad*%
%ADD12C,2.000000*%
%TD*%
%TA.AperFunction,ComponentPad*%
%ADD13C,3.000000*%
%TD*%
%TA.AperFunction,ComponentPad*%
%ADD14R,2.400000X2.400000*%
%TD*%
%TA.AperFunction,ComponentPad*%
%ADD15O,2.400000X2.400000*%
%TD*%
%TA.AperFunction,ComponentPad*%
%ADD16R,1.600000X1.500000*%
%TD*%
G04 APERTURE END LIST*
D10*
%TO.P,C1,1*%
%TO.N,Net-(C1-Pad1)*%
X165100000Y-45720000D03*
D11*
%TO.P,C1,2*%
%TO.N,GND*%
X168600000Y-45720000D03*
%TD*%
D12*
%TO.P,FB1,1*%
%TO.N,Net-(FB1-Pad1)*%
X170180000Y-35560000D03*
%TO.P,FB1,2*%
%TO.N,Net-(C1-Pad1)*%
X165100000Y-35560000D03*
%TD*%
D13*
%TO.P,J1,1,Pin_1*%
%TO.N,Net-(FB1-Pad1)*%
X175260000Y-68580000D03*
%TO.P,J1,2,Pin_2*%
%TO.N,GND*%
X170180000Y-68580000D03*
%TD*%
D14*
%TO.P,D1,1,K*%
%TO.N,Net-(D1-Pad1)*%
X147320000Y-68580000D03*
D15*
%TO.P,D1,2,A*%
%TO.N,GND*%
X162560000Y-68580000D03*
%TD*%
D10*
%TO.P,C2,1*%
%TO.N,/5V*%
X127000000Y-35560000D03*
D11*
%TO.P,C2,2*%
%TO.N,GND*%
X130500000Y-35560000D03*
%TD*%
D16*
%TO.P,J2,1,VBUS*%
%TO.N,/5V*%
X155900000Y-40920000D03*
D11*
%TO.P,J2,2,D-*%
%TO.N,/2.75V*%
X153400000Y-40920000D03*
%TO.P,J2,3,D+*%
%TO.N,/2V*%
X151400000Y-40920000D03*
%TO.P,J2,4,GND*%
%TO.N,GND*%
X148900000Y-40920000D03*
D13*
%TO.P,J2,5,Shield*%
%TO.N,unconnected-(J2-Pad5)*%
X158970000Y-38210000D03*
X145830000Y-38210000D03*
%TD*%
%TA.AperFunction,Conductor*%
%TO.N,GND*%
G36*
X179773621Y-25928502D02*
G01*
X179820114Y-25982158D01*
X179831500Y-26034500D01*
X179831500Y-73025500D01*
X179811498Y-73093621D01*
X179757842Y-73140114D01*
X179705500Y-73151500D01*
X117474500Y-73151500D01*
X117406379Y-73131498D01*
X117359886Y-73077842D01*
X117348500Y-73025500D01*
X117348500Y-69828134D01*
X145611500Y-69828134D01*
X145618255Y-69890316D01*
X145669385Y-70026705D01*
X145756739Y-70143261D01*
X145873295Y-70230615D01*
X146009684Y-70281745D01*
X146071866Y-70288500D01*
X148568134Y-70288500D01*
X148630316Y-70281745D01*
X148766705Y-70230615D01*
X148883261Y-70143261D01*
X148970615Y-70026705D01*
X149021745Y-69890316D01*
X149028500Y-69828134D01*
X149028500Y-68853460D01*
X160872852Y-68853460D01*
X160908593Y-69033143D01*
X160911082Y-69042118D01*
X160993708Y-69272250D01*
X160997505Y-69280778D01*
X161113234Y-69496160D01*
X161118245Y-69504027D01*
X161264550Y-69699953D01*
X161270656Y-69706977D01*
X161444316Y-69879127D01*
X161451398Y-69885176D01*
X161648586Y-70029760D01*
X161656505Y-70034708D01*
X161872877Y-70148547D01*
X161881451Y-70152275D01*
X162112282Y-70232885D01*
X162121291Y-70235299D01*
X162288201Y-70266988D01*
X162301261Y-70265704D01*
X162305506Y-70252360D01*
X162814000Y-70252360D01*
X162818171Y-70266565D01*
X162830933Y-70268620D01*
X162867487Y-70264617D01*
X162876649Y-70262919D01*
X163113107Y-70200665D01*
X163121926Y-70197628D01*
X163187037Y-70169654D01*
X168955618Y-70169654D01*
X168962673Y-70179627D01*
X168993679Y-70205551D01*
X169000598Y-70210579D01*
X169225272Y-70351515D01*
X169232807Y-70355556D01*
X169474520Y-70464694D01*
X169482551Y-70467680D01*
X169736832Y-70543002D01*
X169745184Y-70544869D01*
X170007340Y-70584984D01*
X170015874Y-70585700D01*
X170281045Y-70589867D01*
X170289596Y-70589418D01*
X170552883Y-70557557D01*
X170561284Y-70555955D01*
X170817824Y-70488653D01*
X170825926Y-70485926D01*
X171070949Y-70384434D01*
X171078617Y-70380628D01*
X171307598Y-70246822D01*
X171314679Y-70242009D01*
X171394655Y-70179301D01*
X171403125Y-70167442D01*
X171396608Y-70155818D01*
X170192812Y-68952022D01*
X170178868Y-68944408D01*
X170177035Y-68944539D01*
X170170420Y-68948790D01*
X168962910Y-70156300D01*
X168955618Y-70169654D01*
X163187037Y-70169654D01*
X163346584Y-70101107D01*
X163354856Y-70096800D01*
X163562777Y-69968135D01*
X163570317Y-69962657D01*
X163756943Y-69804668D01*
X163763593Y-69798132D01*
X163924813Y-69614295D01*
X163930420Y-69606854D01*
X164062700Y-69401202D01*
X164067147Y-69393011D01*
X164167572Y-69170076D01*
X164170767Y-69161298D01*
X164237135Y-68925973D01*
X164238993Y-68916844D01*
X164247246Y-68851969D01*
X164244958Y-68837708D01*
X164231938Y-68834000D01*
X162832115Y-68834000D01*
X162816876Y-68838475D01*
X162815671Y-68839865D01*
X162814000Y-68847548D01*
X162814000Y-70252360D01*
X162305506Y-70252360D01*
X162306000Y-70250808D01*
X162306000Y-68852115D01*
X162301525Y-68836876D01*
X162300135Y-68835671D01*
X162292452Y-68834000D01*
X160887096Y-68834000D01*
X160874695Y-68837641D01*
X160872852Y-68853460D01*
X149028500Y-68853460D01*
X149028500Y-68563204D01*
X168167665Y-68563204D01*
X168182932Y-68827969D01*
X168184005Y-68836470D01*
X168235065Y-69096722D01*
X168237276Y-69104974D01*
X168323184Y-69355894D01*
X168326499Y-69363779D01*
X168445664Y-69600713D01*
X168450020Y-69608079D01*
X168579347Y-69796250D01*
X168589601Y-69804594D01*
X168603342Y-69797448D01*
X169807978Y-68592812D01*
X169814356Y-68581132D01*
X170544408Y-68581132D01*
X170544539Y-68582965D01*
X170548790Y-68589580D01*
X171755730Y-69796520D01*
X171767939Y-69803187D01*
X171779439Y-69794497D01*
X171876831Y-69661913D01*
X171881418Y-69654685D01*
X172007962Y-69421621D01*
X172011530Y-69413827D01*
X172105271Y-69165750D01*
X172107748Y-69157544D01*
X172166954Y-68899038D01*
X172168294Y-68890577D01*
X172192031Y-68624616D01*
X172192277Y-68619677D01*
X172192666Y-68582485D01*
X172192523Y-68577519D01*
X172191255Y-68558918D01*
X173246917Y-68558918D01*
X173262682Y-68832320D01*
X173263507Y-68836525D01*
X173263508Y-68836533D01*
X173284698Y-68944539D01*
X173315405Y-69101053D01*
X173316792Y-69105103D01*
X173316793Y-69105108D01*
X173337605Y-69165895D01*
X173404112Y-69360144D01*
X173527160Y-69604799D01*
X173529586Y-69608328D01*
X173529589Y-69608334D01*
X173658741Y-69796250D01*
X173682274Y-69830490D01*
X173866582Y-70033043D01*
X174076675Y-70208707D01*
X174080316Y-70210991D01*
X174305024Y-70351951D01*
X174305028Y-70351953D01*
X174308664Y-70354234D01*
X174376544Y-70384883D01*
X174554345Y-70465164D01*
X174554349Y-70465166D01*
X174558257Y-70466930D01*
X174562377Y-70468150D01*
X174562376Y-70468150D01*
X174816723Y-70543491D01*
X174816727Y-70543492D01*
X174820836Y-70544709D01*
X174825070Y-70545357D01*
X174825075Y-70545358D01*
X175087298Y-70585483D01*
X175087300Y-70585483D01*
X175091540Y-70586132D01*
X175230912Y-70588322D01*
X175361071Y-70590367D01*
X175361077Y-70590367D01*
X175365362Y-70590434D01*
X175637235Y-70557534D01*
X175902127Y-70488041D01*
X175906087Y-70486401D01*
X175906092Y-70486399D01*
X176028631Y-70435641D01*
X176155136Y-70383241D01*
X176327366Y-70282598D01*
X176387879Y-70247237D01*
X176387880Y-70247236D01*
X176391582Y-70245073D01*
X176607089Y-70076094D01*
X176648809Y-70033043D01*
X176731059Y-69948167D01*
X176797669Y-69879431D01*
X176800202Y-69875983D01*
X176800206Y-69875978D01*
X176957257Y-69662178D01*
X176959795Y-69658723D01*
X176961841Y-69654955D01*
X177088418Y-69421830D01*
X177088419Y-69421828D01*
X177090468Y-69418054D01*
X177187269Y-69161877D01*
X177248407Y-68894933D01*
X177252109Y-68853460D01*
X177272531Y-68624627D01*
X177272532Y-68624616D01*
X177272751Y-68622161D01*
X177273193Y-68580000D01*
X177271465Y-68554648D01*
X177254859Y-68311055D01*
X177254858Y-68311049D01*
X177254567Y-68306778D01*
X177199032Y-68038612D01*
X177107617Y-67780465D01*
X176982013Y-67537112D01*
X176972040Y-67522921D01*
X176903279Y-67425084D01*
X176824545Y-67313057D01*
X176657500Y-67133295D01*
X176641046Y-67115588D01*
X176641043Y-67115585D01*
X176638125Y-67112445D01*
X176634810Y-67109731D01*
X176634806Y-67109728D01*
X176429523Y-66941706D01*
X176426205Y-66938990D01*
X176192704Y-66795901D01*
X176188768Y-66794173D01*
X175945873Y-66687549D01*
X175945869Y-66687548D01*
X175941945Y-66685825D01*
X175678566Y-66610800D01*
X175674324Y-66610196D01*
X175674318Y-66610195D01*
X175473834Y-66581662D01*
X175407443Y-66572213D01*
X175263589Y-66571460D01*
X175137877Y-66570802D01*
X175137871Y-66570802D01*
X175133591Y-66570780D01*
X175129347Y-66571339D01*
X175129343Y-66571339D01*
X175010302Y-66587011D01*
X174862078Y-66606525D01*
X174857938Y-66607658D01*
X174857936Y-66607658D01*
X174785008Y-66627609D01*
X174597928Y-66678788D01*
X174593980Y-66680472D01*
X174349982Y-66784546D01*
X174349978Y-66784548D01*
X174346030Y-66786232D01*
X174326125Y-66798145D01*
X174114725Y-66924664D01*
X174114721Y-66924667D01*
X174111043Y-66926868D01*
X173897318Y-67098094D01*
X173708808Y-67296742D01*
X173549002Y-67519136D01*
X173420857Y-67761161D01*
X173419385Y-67765184D01*
X173419383Y-67765188D01*
X173412314Y-67784506D01*
X173326743Y-68018337D01*
X173268404Y-68285907D01*
X173246917Y-68558918D01*
X172191255Y-68558918D01*
X172174362Y-68311123D01*
X172173201Y-68302649D01*
X172119419Y-68042944D01*
X172117120Y-68034709D01*
X172028588Y-67784705D01*
X172025191Y-67776854D01*
X171903550Y-67541178D01*
X171899122Y-67533866D01*
X171780031Y-67364417D01*
X171769509Y-67356037D01*
X171756121Y-67363089D01*
X170552022Y-68567188D01*
X170544408Y-68581132D01*
X169814356Y-68581132D01*
X169815592Y-68578868D01*
X169815461Y-68577035D01*
X169811210Y-68570420D01*
X168603814Y-67363024D01*
X168591804Y-67356466D01*
X168580064Y-67365434D01*
X168471935Y-67515911D01*
X168467418Y-67523196D01*
X168343325Y-67757567D01*
X168339839Y-67765395D01*
X168248700Y-68014446D01*
X168246311Y-68022670D01*
X168189812Y-68281795D01*
X168188563Y-68290250D01*
X168167754Y-68554653D01*
X168167665Y-68563204D01*
X149028500Y-68563204D01*
X149028500Y-68307976D01*
X160870675Y-68307976D01*
X160873435Y-68322703D01*
X160885614Y-68326000D01*
X162287885Y-68326000D01*
X162303124Y-68321525D01*
X162304329Y-68320135D01*
X162306000Y-68312452D01*
X162306000Y-68307885D01*
X162814000Y-68307885D01*
X162818475Y-68323124D01*
X162819865Y-68324329D01*
X162827548Y-68326000D01*
X164235671Y-68326000D01*
X164249202Y-68322027D01*
X164250634Y-68312068D01*
X164198979Y-68083786D01*
X164196255Y-68074875D01*
X164107633Y-67846983D01*
X164103619Y-67838567D01*
X163982286Y-67626281D01*
X163977070Y-67618548D01*
X163825692Y-67426525D01*
X163819399Y-67419657D01*
X163641294Y-67252112D01*
X163634060Y-67246254D01*
X163433141Y-67106872D01*
X163425115Y-67102144D01*
X163205810Y-66993995D01*
X163202110Y-66992500D01*
X168956584Y-66992500D01*
X168962980Y-67003770D01*
X170167188Y-68207978D01*
X170181132Y-68215592D01*
X170182965Y-68215461D01*
X170189580Y-68211210D01*
X171396604Y-67004186D01*
X171403795Y-66991017D01*
X171396473Y-66980780D01*
X171349233Y-66942115D01*
X171342261Y-66937160D01*
X171116122Y-66798582D01*
X171108552Y-66794624D01*
X170865704Y-66688022D01*
X170857644Y-66685120D01*
X170602592Y-66612467D01*
X170594214Y-66610685D01*
X170331656Y-66573318D01*
X170323111Y-66572691D01*
X170057908Y-66571302D01*
X170049374Y-66571839D01*
X169786433Y-66606456D01*
X169778035Y-66608149D01*
X169522238Y-66678127D01*
X169514143Y-66680946D01*
X169270199Y-66784997D01*
X169262577Y-66788881D01*
X169035013Y-66925075D01*
X169027981Y-66929962D01*
X168965053Y-66980377D01*
X168956584Y-66992500D01*
X163202110Y-66992500D01*
X163197177Y-66990507D01*
X162964288Y-66915958D01*
X162955238Y-66913785D01*
X162831880Y-66893696D01*
X162818286Y-66895393D01*
X162814000Y-66909500D01*
X162814000Y-68307885D01*
X162306000Y-68307885D01*
X162306000Y-66908859D01*
X162301982Y-66895175D01*
X162288290Y-66893154D01*
X162208521Y-66904010D01*
X162199403Y-66905948D01*
X161964668Y-66974367D01*
X161955915Y-66977639D01*
X161733869Y-67080004D01*
X161725714Y-67084524D01*
X161521233Y-67218587D01*
X161513828Y-67224270D01*
X161331413Y-67387082D01*
X161324935Y-67393790D01*
X161168584Y-67581781D01*
X161163163Y-67589381D01*
X161036322Y-67798409D01*
X161032084Y-67806726D01*
X160937529Y-68032214D01*
X160934572Y-68041052D01*
X160874382Y-68278048D01*
X160872764Y-68287228D01*
X160870675Y-68307976D01*
X149028500Y-68307976D01*
X149028500Y-67331866D01*
X149021745Y-67269684D01*
X148970615Y-67133295D01*
X148883261Y-67016739D01*
X148766705Y-66929385D01*
X148630316Y-66878255D01*
X148568134Y-66871500D01*
X146071866Y-66871500D01*
X146009684Y-66878255D01*
X145873295Y-66929385D01*
X145756739Y-67016739D01*
X145669385Y-67133295D01*
X145618255Y-67269684D01*
X145611500Y-67331866D01*
X145611500Y-69828134D01*
X117348500Y-69828134D01*
X117348500Y-46568134D01*
X163791500Y-46568134D01*
X163798255Y-46630316D01*
X163849385Y-46766705D01*
X163936739Y-46883261D01*
X164053295Y-46970615D01*
X164189684Y-47021745D01*
X164251866Y-47028500D01*
X165948134Y-47028500D01*
X166010316Y-47021745D01*
X166146705Y-46970615D01*
X166263261Y-46883261D01*
X166321119Y-46806062D01*
X167878493Y-46806062D01*
X167887789Y-46818077D01*
X167938994Y-46853931D01*
X167948489Y-46859414D01*
X168145947Y-46951490D01*
X168156239Y-46955236D01*
X168366688Y-47011625D01*
X168377481Y-47013528D01*
X168594525Y-47032517D01*
X168605475Y-47032517D01*
X168822519Y-47013528D01*
X168833312Y-47011625D01*
X169043761Y-46955236D01*
X169054053Y-46951490D01*
X169251511Y-46859414D01*
X169261006Y-46853931D01*
X169313048Y-46817491D01*
X169321424Y-46807012D01*
X169314356Y-46793566D01*
X168612812Y-46092022D01*
X168598868Y-46084408D01*
X168597035Y-46084539D01*
X168590420Y-46088790D01*
X167884923Y-46794287D01*
X167878493Y-46806062D01*
X166321119Y-46806062D01*
X166350615Y-46766705D01*
X166401745Y-46630316D01*
X166408500Y-46568134D01*
X166408500Y-45725475D01*
X167287483Y-45725475D01*
X167306472Y-45942519D01*
X167308375Y-45953312D01*
X167364764Y-46163761D01*
X167368510Y-46174053D01*
X167460586Y-46371511D01*
X167466069Y-46381006D01*
X167502509Y-46433048D01*
X167512988Y-46441424D01*
X167526434Y-46434356D01*
X168227978Y-45732812D01*
X168234356Y-45721132D01*
X168964408Y-45721132D01*
X168964539Y-45722965D01*
X168968790Y-45729580D01*
X169674287Y-46435077D01*
X169686062Y-46441507D01*
X169698077Y-46432211D01*
X169733931Y-46381006D01*
X169739414Y-46371511D01*
X169831490Y-46174053D01*
X169835236Y-46163761D01*
X169891625Y-45953312D01*
X169893528Y-45942519D01*
X169912517Y-45725475D01*
X169912517Y-45714525D01*
X169893528Y-45497481D01*
X169891625Y-45486688D01*
X169835236Y-45276239D01*
X169831490Y-45265947D01*
X169739414Y-45068489D01*
X169733931Y-45058994D01*
X169697491Y-45006952D01*
X169687012Y-44998576D01*
X169673566Y-45005644D01*
X168972022Y-45707188D01*
X168964408Y-45721132D01*
X168234356Y-45721132D01*
X168235592Y-45718868D01*
X168235461Y-45717035D01*
X168231210Y-45710420D01*
X167525713Y-45004923D01*
X167513938Y-44998493D01*
X167501923Y-45007789D01*
X167466069Y-45058994D01*
X167460586Y-45068489D01*
X167368510Y-45265947D01*
X167364764Y-45276239D01*
X167308375Y-45486688D01*
X167306472Y-45497481D01*
X167287483Y-45714525D01*
X167287483Y-45725475D01*
X166408500Y-45725475D01*
X166408500Y-44871866D01*
X166401745Y-44809684D01*
X166350615Y-44673295D01*
X166320407Y-44632988D01*
X167878576Y-44632988D01*
X167885644Y-44646434D01*
X168587188Y-45347978D01*
X168601132Y-45355592D01*
X168602965Y-45355461D01*
X168609580Y-45351210D01*
X169315077Y-44645713D01*
X169321507Y-44633938D01*
X169312211Y-44621923D01*
X169261006Y-44586069D01*
X169251511Y-44580586D01*
X169054053Y-44488510D01*
X169043761Y-44484764D01*
X168833312Y-44428375D01*
X168822519Y-44426472D01*
X168605475Y-44407483D01*
X168594525Y-44407483D01*
X168377481Y-44426472D01*
X168366688Y-44428375D01*
X168156239Y-44484764D01*
X168145947Y-44488510D01*
X167948489Y-44580586D01*
X167938994Y-44586069D01*
X167886952Y-44622509D01*
X167878576Y-44632988D01*
X166320407Y-44632988D01*
X166263261Y-44556739D01*
X166146705Y-44469385D01*
X166010316Y-44418255D01*
X165948134Y-44411500D01*
X164251866Y-44411500D01*
X164189684Y-44418255D01*
X164053295Y-44469385D01*
X163936739Y-44556739D01*
X163849385Y-44673295D01*
X163798255Y-44809684D01*
X163791500Y-44871866D01*
X163791500Y-46568134D01*
X117348500Y-46568134D01*
X117348500Y-42006062D01*
X148178493Y-42006062D01*
X148187789Y-42018077D01*
X148238994Y-42053931D01*
X148248489Y-42059414D01*
X148445947Y-42151490D01*
X148456239Y-42155236D01*
X148666688Y-42211625D01*
X148677481Y-42213528D01*
X148894525Y-42232517D01*
X148905475Y-42232517D01*
X149122519Y-42213528D01*
X149133312Y-42211625D01*
X149343761Y-42155236D01*
X149354053Y-42151490D01*
X149551511Y-42059414D01*
X149561006Y-42053931D01*
X149613048Y-42017491D01*
X149621424Y-42007012D01*
X149614356Y-41993566D01*
X148912812Y-41292022D01*
X148898868Y-41284408D01*
X148897035Y-41284539D01*
X148890420Y-41288790D01*
X148184923Y-41994287D01*
X148178493Y-42006062D01*
X117348500Y-42006062D01*
X117348500Y-40925475D01*
X147587483Y-40925475D01*
X147606472Y-41142519D01*
X147608375Y-41153312D01*
X147664764Y-41363761D01*
X147668510Y-41374053D01*
X147760586Y-41571511D01*
X147766069Y-41581006D01*
X147802509Y-41633048D01*
X147812988Y-41641424D01*
X147826434Y-41634356D01*
X148527978Y-40932812D01*
X148534356Y-40921132D01*
X149264408Y-40921132D01*
X149264539Y-40922965D01*
X149268790Y-40929580D01*
X149974287Y-41635077D01*
X149986062Y-41641507D01*
X149998077Y-41632211D01*
X150033934Y-41581002D01*
X150040591Y-41569472D01*
X150091973Y-41520479D01*
X150161687Y-41507042D01*
X150227598Y-41533429D01*
X150258829Y-41569472D01*
X150260153Y-41571765D01*
X150262477Y-41576749D01*
X150265631Y-41581253D01*
X150359084Y-41714717D01*
X150393802Y-41764300D01*
X150555700Y-41926198D01*
X150560208Y-41929355D01*
X150560211Y-41929357D01*
X150638389Y-41984098D01*
X150743251Y-42057523D01*
X150748233Y-42059846D01*
X150748238Y-42059849D01*
X150944765Y-42151490D01*
X150950757Y-42154284D01*
X150956065Y-42155706D01*
X150956067Y-42155707D01*
X151166598Y-42212119D01*
X151166600Y-42212119D01*
X151171913Y-42213543D01*
X151400000Y-42233498D01*
X151628087Y-42213543D01*
X151633400Y-42212119D01*
X151633402Y-42212119D01*
X151843933Y-42155707D01*
X151843935Y-42155706D01*
X151849243Y-42154284D01*
X151855235Y-42151490D01*
X152051762Y-42059849D01*
X152051767Y-42059846D01*
X152056749Y-42057523D01*
X152161611Y-41984098D01*
X152239789Y-41929357D01*
X152239792Y-41929355D01*
X152244300Y-41926198D01*
X152310905Y-41859593D01*
X152373217Y-41825567D01*
X152444032Y-41830632D01*
X152489095Y-41859593D01*
X152555700Y-41926198D01*
X152560208Y-41929355D01*
X152560211Y-41929357D01*
X152638389Y-41984098D01*
X152743251Y-42057523D01*
X152748233Y-42059846D01*
X152748238Y-42059849D01*
X152944765Y-42151490D01*
X152950757Y-42154284D01*
X152956065Y-42155706D01*
X152956067Y-42155707D01*
X153166598Y-42212119D01*
X153166600Y-42212119D01*
X153171913Y-42213543D01*
X153400000Y-42233498D01*
X153628087Y-42213543D01*
X153633400Y-42212119D01*
X153633402Y-42212119D01*
X153843933Y-42155707D01*
X153843935Y-42155706D01*
X153849243Y-42154284D01*
X153855235Y-42151490D01*
X154051762Y-42059849D01*
X154051767Y-42059846D01*
X154056749Y-42057523D01*
X154161611Y-41984098D01*
X154239789Y-41929357D01*
X154239792Y-41929355D01*
X154244300Y-41926198D01*
X154403140Y-41767358D01*
X154465452Y-41733332D01*
X154536267Y-41738397D01*
X154593103Y-41780944D01*
X154610216Y-41812223D01*
X154649385Y-41916705D01*
X154736739Y-42033261D01*
X154853295Y-42120615D01*
X154989684Y-42171745D01*
X155051866Y-42178500D01*
X156748134Y-42178500D01*
X156810316Y-42171745D01*
X156946705Y-42120615D01*
X157063261Y-42033261D01*
X157150615Y-41916705D01*
X157201745Y-41780316D01*
X157208500Y-41718134D01*
X157208500Y-40121866D01*
X157208085Y-40118041D01*
X157207815Y-40115560D01*
X157201745Y-40059684D01*
X157150615Y-39923295D01*
X157063261Y-39806739D01*
X156946705Y-39719385D01*
X156810316Y-39668255D01*
X156748134Y-39661500D01*
X155051866Y-39661500D01*
X154989684Y-39668255D01*
X154853295Y-39719385D01*
X154736739Y-39806739D01*
X154649385Y-39923295D01*
X154646233Y-39931703D01*
X154646232Y-39931705D01*
X154610217Y-40027776D01*
X154567576Y-40084541D01*
X154501015Y-40109241D01*
X154431666Y-40094034D01*
X154403140Y-40072642D01*
X154244300Y-39913802D01*
X154239792Y-39910645D01*
X154239789Y-39910643D01*
X154140315Y-39840991D01*
X154056749Y-39782477D01*
X154051767Y-39780154D01*
X154051762Y-39780151D01*
X153854225Y-39688039D01*
X153854224Y-39688039D01*
X153849243Y-39685716D01*
X153843935Y-39684294D01*
X153843933Y-39684293D01*
X153633402Y-39627881D01*
X153633400Y-39627881D01*
X153628087Y-39626457D01*
X153400000Y-39606502D01*
X153171913Y-39626457D01*
X153166600Y-39627881D01*
X153166598Y-39627881D01*
X152956067Y-39684293D01*
X152956065Y-39684294D01*
X152950757Y-39685716D01*
X152945776Y-39688039D01*
X152945775Y-39688039D01*
X152748238Y-39780151D01*
X152748233Y-39780154D01*
X152743251Y-39782477D01*
X152659685Y-39840991D01*
X152560211Y-39910643D01*
X152560208Y-39910645D01*
X152555700Y-39913802D01*
X152489095Y-39980407D01*
X152426783Y-40014433D01*
X152355968Y-40009368D01*
X152310905Y-39980407D01*
X152244300Y-39913802D01*
X152239792Y-39910645D01*
X152239789Y-39910643D01*
X152140315Y-39840991D01*
X152056749Y-39782477D01*
X152051767Y-39780154D01*
X152051762Y-39780151D01*
X151854225Y-39688039D01*
X151854224Y-39688039D01*
X151849243Y-39685716D01*
X151843935Y-39684294D01*
X151843933Y-39684293D01*
X151633402Y-39627881D01*
X151633400Y-39627881D01*
X151628087Y-39626457D01*
X151400000Y-39606502D01*
X151171913Y-39626457D01*
X151166600Y-39627881D01*
X151166598Y-39627881D01*
X150956067Y-39684293D01*
X150956065Y-39684294D01*
X150950757Y-39685716D01*
X150945776Y-39688039D01*
X150945775Y-39688039D01*
X150748238Y-39780151D01*
X150748233Y-39780154D01*
X150743251Y-39782477D01*
X150659685Y-39840991D01*
X150560211Y-39910643D01*
X150560208Y-39910645D01*
X150555700Y-39913802D01*
X150393802Y-40075700D01*
X150390645Y-40080208D01*
X150390643Y-40080211D01*
X150318056Y-40183876D01*
X150262477Y-40263251D01*
X150260153Y-40268235D01*
X150258829Y-40270528D01*
X150207447Y-40319521D01*
X150137733Y-40332957D01*
X150071822Y-40306571D01*
X150040591Y-40270528D01*
X150033934Y-40258998D01*
X149997491Y-40206952D01*
X149987012Y-40198576D01*
X149973566Y-40205644D01*
X149272022Y-40907188D01*
X149264408Y-40921132D01*
X148534356Y-40921132D01*
X148535592Y-40918868D01*
X148535461Y-40917035D01*
X148531210Y-40910420D01*
X147825713Y-40204923D01*
X147813938Y-40198493D01*
X147801923Y-40207789D01*
X147766069Y-40258994D01*
X147760586Y-40268489D01*
X147668510Y-40465947D01*
X147664764Y-40476239D01*
X147608375Y-40686688D01*
X147606472Y-40697481D01*
X147587483Y-40914525D01*
X147587483Y-40925475D01*
X117348500Y-40925475D01*
X117348500Y-38188918D01*
X143816917Y-38188918D01*
X143832682Y-38462320D01*
X143833507Y-38466525D01*
X143833508Y-38466533D01*
X143844127Y-38520657D01*
X143885405Y-38731053D01*
X143886792Y-38735103D01*
X143886793Y-38735108D01*
X143907605Y-38795895D01*
X143974112Y-38990144D01*
X144097160Y-39234799D01*
X144099586Y-39238328D01*
X144099589Y-39238334D01*
X144249843Y-39456953D01*
X144252274Y-39460490D01*
X144255161Y-39463663D01*
X144255162Y-39463664D01*
X144402856Y-39625978D01*
X144436582Y-39663043D01*
X144439877Y-39665798D01*
X144439878Y-39665799D01*
X144446133Y-39671029D01*
X144646675Y-39838707D01*
X144650316Y-39840991D01*
X144875024Y-39981951D01*
X144875028Y-39981953D01*
X144878664Y-39984234D01*
X145003461Y-40040582D01*
X145124345Y-40095164D01*
X145124349Y-40095166D01*
X145128257Y-40096930D01*
X145191393Y-40115632D01*
X145386723Y-40173491D01*
X145386727Y-40173492D01*
X145390836Y-40174709D01*
X145395070Y-40175357D01*
X145395075Y-40175358D01*
X145657298Y-40215483D01*
X145657300Y-40215483D01*
X145661540Y-40216132D01*
X145800912Y-40218322D01*
X145931071Y-40220367D01*
X145931077Y-40220367D01*
X145935362Y-40220434D01*
X146207235Y-40187534D01*
X146472127Y-40118041D01*
X146476087Y-40116401D01*
X146476092Y-40116399D01*
X146613013Y-40059684D01*
X146725136Y-40013241D01*
X146961582Y-39875073D01*
X147015255Y-39832988D01*
X148178576Y-39832988D01*
X148185644Y-39846434D01*
X148887188Y-40547978D01*
X148901132Y-40555592D01*
X148902965Y-40555461D01*
X148909580Y-40551210D01*
X149615077Y-39845713D01*
X149621507Y-39833938D01*
X149612211Y-39821923D01*
X149561006Y-39786069D01*
X149551511Y-39780586D01*
X149354053Y-39688510D01*
X149343761Y-39684764D01*
X149133312Y-39628375D01*
X149122519Y-39626472D01*
X148905475Y-39607483D01*
X148894525Y-39607483D01*
X148677481Y-39626472D01*
X148666688Y-39628375D01*
X148456239Y-39684764D01*
X148445947Y-39688510D01*
X148248489Y-39780586D01*
X148238994Y-39786069D01*
X148186952Y-39822509D01*
X148178576Y-39832988D01*
X147015255Y-39832988D01*
X147177089Y-39706094D01*
X147197760Y-39684764D01*
X147364686Y-39512509D01*
X147367669Y-39509431D01*
X147370202Y-39505983D01*
X147370206Y-39505978D01*
X147527257Y-39292178D01*
X147529795Y-39288723D01*
X147557154Y-39238334D01*
X147658418Y-39051830D01*
X147658419Y-39051828D01*
X147660468Y-39048054D01*
X147757269Y-38791877D01*
X147818407Y-38524933D01*
X147842751Y-38252161D01*
X147843193Y-38210000D01*
X147841756Y-38188918D01*
X156956917Y-38188918D01*
X156972682Y-38462320D01*
X156973507Y-38466525D01*
X156973508Y-38466533D01*
X156984127Y-38520657D01*
X157025405Y-38731053D01*
X157026792Y-38735103D01*
X157026793Y-38735108D01*
X157047605Y-38795895D01*
X157114112Y-38990144D01*
X157237160Y-39234799D01*
X157239586Y-39238328D01*
X157239589Y-39238334D01*
X157389843Y-39456953D01*
X157392274Y-39460490D01*
X157395161Y-39463663D01*
X157395162Y-39463664D01*
X157542856Y-39625978D01*
X157576582Y-39663043D01*
X157579877Y-39665798D01*
X157579878Y-39665799D01*
X157586133Y-39671029D01*
X157786675Y-39838707D01*
X157790316Y-39840991D01*
X158015024Y-39981951D01*
X158015028Y-39981953D01*
X158018664Y-39984234D01*
X158143461Y-40040582D01*
X158264345Y-40095164D01*
X158264349Y-40095166D01*
X158268257Y-40096930D01*
X158331393Y-40115632D01*
X158526723Y-40173491D01*
X158526727Y-40173492D01*
X158530836Y-40174709D01*
X158535070Y-40175357D01*
X158535075Y-40175358D01*
X158797298Y-40215483D01*
X158797300Y-40215483D01*
X158801540Y-40216132D01*
X158940912Y-40218322D01*
X159071071Y-40220367D01*
X159071077Y-40220367D01*
X159075362Y-40220434D01*
X159347235Y-40187534D01*
X159612127Y-40118041D01*
X159616087Y-40116401D01*
X159616092Y-40116399D01*
X159753013Y-40059684D01*
X159865136Y-40013241D01*
X160101582Y-39875073D01*
X160317089Y-39706094D01*
X160337760Y-39684764D01*
X160504686Y-39512509D01*
X160507669Y-39509431D01*
X160510202Y-39505983D01*
X160510206Y-39505978D01*
X160667257Y-39292178D01*
X160669795Y-39288723D01*
X160697154Y-39238334D01*
X160798418Y-39051830D01*
X160798419Y-39051828D01*
X160800468Y-39048054D01*
X160897269Y-38791877D01*
X160958407Y-38524933D01*
X160982751Y-38252161D01*
X160983193Y-38210000D01*
X160964567Y-37936778D01*
X160909032Y-37668612D01*
X160817617Y-37410465D01*
X160692013Y-37167112D01*
X160682040Y-37152921D01*
X160537008Y-36946562D01*
X160534545Y-36943057D01*
X160449581Y-36851625D01*
X160351046Y-36745588D01*
X160351043Y-36745585D01*
X160348125Y-36742445D01*
X160344810Y-36739731D01*
X160344806Y-36739728D01*
X160191063Y-36613891D01*
X160136205Y-36568990D01*
X159902704Y-36425901D01*
X159898768Y-36424173D01*
X159655873Y-36317549D01*
X159655869Y-36317548D01*
X159651945Y-36315825D01*
X159388566Y-36240800D01*
X159384324Y-36240196D01*
X159384318Y-36240195D01*
X159182773Y-36211511D01*
X159117443Y-36202213D01*
X158973589Y-36201460D01*
X158847877Y-36200802D01*
X158847871Y-36200802D01*
X158843591Y-36200780D01*
X158839347Y-36201339D01*
X158839343Y-36201339D01*
X158720302Y-36217011D01*
X158572078Y-36236525D01*
X158567938Y-36237658D01*
X158567936Y-36237658D01*
X158533923Y-36246963D01*
X158307928Y-36308788D01*
X158303980Y-36310472D01*
X158059982Y-36414546D01*
X158059978Y-36414548D01*
X158056030Y-36416232D01*
X157978788Y-36462460D01*
X157824725Y-36554664D01*
X157824721Y-36554667D01*
X157821043Y-36556868D01*
X157607318Y-36728094D01*
X157526017Y-36813767D01*
X157436366Y-36908240D01*
X157418808Y-36926742D01*
X157259002Y-37149136D01*
X157130857Y-37391161D01*
X157129385Y-37395184D01*
X157129383Y-37395188D01*
X157122314Y-37414506D01*
X157036743Y-37648337D01*
X156978404Y-37915907D01*
X156956917Y-38188918D01*
X147841756Y-38188918D01*
X147824567Y-37936778D01*
X147769032Y-37668612D01*
X147677617Y-37410465D01*
X147552013Y-37167112D01*
X147542040Y-37152921D01*
X147397008Y-36946562D01*
X147394545Y-36943057D01*
X147309581Y-36851625D01*
X147211046Y-36745588D01*
X147211043Y-36745585D01*
X147208125Y-36742445D01*
X147204810Y-36739731D01*
X147204806Y-36739728D01*
X147051063Y-36613891D01*
X146996205Y-36568990D01*
X146762704Y-36425901D01*
X146758768Y-36424173D01*
X146515873Y-36317549D01*
X146515869Y-36317548D01*
X146511945Y-36315825D01*
X146248566Y-36240800D01*
X146244324Y-36240196D01*
X146244318Y-36240195D01*
X146042773Y-36211511D01*
X145977443Y-36202213D01*
X145833589Y-36201460D01*
X145707877Y-36200802D01*
X145707871Y-36200802D01*
X145703591Y-36200780D01*
X145699347Y-36201339D01*
X145699343Y-36201339D01*
X145580302Y-36217011D01*
X145432078Y-36236525D01*
X145427938Y-36237658D01*
X145427936Y-36237658D01*
X145393923Y-36246963D01*
X145167928Y-36308788D01*
X145163980Y-36310472D01*
X144919982Y-36414546D01*
X144919978Y-36414548D01*
X144916030Y-36416232D01*
X144838788Y-36462460D01*
X144684725Y-36554664D01*
X144684721Y-36554667D01*
X144681043Y-36556868D01*
X144467318Y-36728094D01*
X144386017Y-36813767D01*
X144296366Y-36908240D01*
X144278808Y-36926742D01*
X144119002Y-37149136D01*
X143990857Y-37391161D01*
X143989385Y-37395184D01*
X143989383Y-37395188D01*
X143982314Y-37414506D01*
X143896743Y-37648337D01*
X143838404Y-37915907D01*
X143816917Y-38188918D01*
X117348500Y-38188918D01*
X117348500Y-36408134D01*
X125691500Y-36408134D01*
X125698255Y-36470316D01*
X125749385Y-36606705D01*
X125836739Y-36723261D01*
X125953295Y-36810615D01*
X126089684Y-36861745D01*
X126151866Y-36868500D01*
X127848134Y-36868500D01*
X127910316Y-36861745D01*
X128046705Y-36810615D01*
X128163261Y-36723261D01*
X128221119Y-36646062D01*
X129778493Y-36646062D01*
X129787789Y-36658077D01*
X129838994Y-36693931D01*
X129848489Y-36699414D01*
X130045947Y-36791490D01*
X130056239Y-36795236D01*
X130266688Y-36851625D01*
X130277481Y-36853528D01*
X130494525Y-36872517D01*
X130505475Y-36872517D01*
X130722519Y-36853528D01*
X130733312Y-36851625D01*
X130943761Y-36795236D01*
X130954053Y-36791490D01*
X131151511Y-36699414D01*
X131161006Y-36693931D01*
X131213048Y-36657491D01*
X131221424Y-36647012D01*
X131214356Y-36633566D01*
X130512812Y-35932022D01*
X130498868Y-35924408D01*
X130497035Y-35924539D01*
X130490420Y-35928790D01*
X129784923Y-36634287D01*
X129778493Y-36646062D01*
X128221119Y-36646062D01*
X128250615Y-36606705D01*
X128301745Y-36470316D01*
X128308500Y-36408134D01*
X128308500Y-35565475D01*
X129187483Y-35565475D01*
X129206472Y-35782519D01*
X129208375Y-35793312D01*
X129264764Y-36003761D01*
X129268510Y-36014053D01*
X129360586Y-36211511D01*
X129366069Y-36221006D01*
X129402509Y-36273048D01*
X129412988Y-36281424D01*
X129426434Y-36274356D01*
X130127978Y-35572812D01*
X130134356Y-35561132D01*
X130864408Y-35561132D01*
X130864539Y-35562965D01*
X130868790Y-35569580D01*
X131574287Y-36275077D01*
X131586062Y-36281507D01*
X131598077Y-36272211D01*
X131633931Y-36221006D01*
X131639414Y-36211511D01*
X131731490Y-36014053D01*
X131735236Y-36003761D01*
X131791625Y-35793312D01*
X131793528Y-35782519D01*
X131812517Y-35565475D01*
X131812517Y-35560000D01*
X163586835Y-35560000D01*
X163605465Y-35796711D01*
X163660895Y-36027594D01*
X163662788Y-36032165D01*
X163662789Y-36032167D01*
X163749695Y-36241977D01*
X163751760Y-36246963D01*
X163754346Y-36251183D01*
X163873241Y-36445202D01*
X163873245Y-36445208D01*
X163875824Y-36449416D01*
X164030031Y-36629969D01*
X164033787Y-36633177D01*
X164035087Y-36634287D01*
X164210584Y-36784176D01*
X164214792Y-36786755D01*
X164214798Y-36786759D01*
X164408817Y-36905654D01*
X164413037Y-36908240D01*
X164417607Y-36910133D01*
X164417611Y-36910135D01*
X164627833Y-36997211D01*
X164632406Y-36999105D01*
X164712609Y-37018360D01*
X164858476Y-37053380D01*
X164858482Y-37053381D01*
X164863289Y-37054535D01*
X165100000Y-37073165D01*
X165336711Y-37054535D01*
X165341518Y-37053381D01*
X165341524Y-37053380D01*
X165487391Y-37018360D01*
X165567594Y-36999105D01*
X165572167Y-36997211D01*
X165782389Y-36910135D01*
X165782393Y-36910133D01*
X165786963Y-36908240D01*
X165791183Y-36905654D01*
X165985202Y-36786759D01*
X165985208Y-36786755D01*
X165989416Y-36784176D01*
X166164913Y-36634287D01*
X166166213Y-36633177D01*
X166169969Y-36629969D01*
X166324176Y-36449416D01*
X166326755Y-36445208D01*
X166326759Y-36445202D01*
X166445654Y-36251183D01*
X166448240Y-36246963D01*
X166450306Y-36241977D01*
X166537211Y-36032167D01*
X166537212Y-36032165D01*
X166539105Y-36027594D01*
X166594535Y-35796711D01*
X166613165Y-35560000D01*
X168666835Y-35560000D01*
X168685465Y-35796711D01*
X168740895Y-36027594D01*
X168742788Y-36032165D01*
X168742789Y-36032167D01*
X168829695Y-36241977D01*
X168831760Y-36246963D01*
X168834346Y-36251183D01*
X168953241Y-36445202D01*
X168953245Y-36445208D01*
X168955824Y-36449416D01*
X169110031Y-36629969D01*
X169113787Y-36633177D01*
X169115087Y-36634287D01*
X169290584Y-36784176D01*
X169294792Y-36786755D01*
X169294798Y-36786759D01*
X169488817Y-36905654D01*
X169493037Y-36908240D01*
X169497607Y-36910133D01*
X169497611Y-36910135D01*
X169707833Y-36997211D01*
X169712406Y-36999105D01*
X169792609Y-37018360D01*
X169938476Y-37053380D01*
X169938482Y-37053381D01*
X169943289Y-37054535D01*
X170180000Y-37073165D01*
X170416711Y-37054535D01*
X170421518Y-37053381D01*
X170421524Y-37053380D01*
X170567391Y-37018360D01*
X170647594Y-36999105D01*
X170652167Y-36997211D01*
X170862389Y-36910135D01*
X170862393Y-36910133D01*
X170866963Y-36908240D01*
X170871183Y-36905654D01*
X171065202Y-36786759D01*
X171065208Y-36786755D01*
X171069416Y-36784176D01*
X171244913Y-36634287D01*
X171246213Y-36633177D01*
X171249969Y-36629969D01*
X171404176Y-36449416D01*
X171406755Y-36445208D01*
X171406759Y-36445202D01*
X171525654Y-36251183D01*
X171528240Y-36246963D01*
X171530306Y-36241977D01*
X171617211Y-36032167D01*
X171617212Y-36032165D01*
X171619105Y-36027594D01*
X171674535Y-35796711D01*
X171693165Y-35560000D01*
X171674535Y-35323289D01*
X171619105Y-35092406D01*
X171528240Y-34873037D01*
X171512255Y-34846952D01*
X171406759Y-34674798D01*
X171406755Y-34674792D01*
X171404176Y-34670584D01*
X171249969Y-34490031D01*
X171245758Y-34486434D01*
X171134438Y-34391358D01*
X171069416Y-34335824D01*
X171065208Y-34333245D01*
X171065202Y-34333241D01*
X170871183Y-34214346D01*
X170866963Y-34211760D01*
X170862393Y-34209867D01*
X170862389Y-34209865D01*
X170652167Y-34122789D01*
X170652165Y-34122788D01*
X170647594Y-34120895D01*
X170567391Y-34101640D01*
X170421524Y-34066620D01*
X170421518Y-34066619D01*
X170416711Y-34065465D01*
X170180000Y-34046835D01*
X169943289Y-34065465D01*
X169938482Y-34066619D01*
X169938476Y-34066620D01*
X169792609Y-34101640D01*
X169712406Y-34120895D01*
X169707835Y-34122788D01*
X169707833Y-34122789D01*
X169497611Y-34209865D01*
X169497607Y-34209867D01*
X169493037Y-34211760D01*
X169488817Y-34214346D01*
X169294798Y-34333241D01*
X169294792Y-34333245D01*
X169290584Y-34335824D01*
X169225562Y-34391358D01*
X169114243Y-34486434D01*
X169110031Y-34490031D01*
X168955824Y-34670584D01*
X168953245Y-34674792D01*
X168953241Y-34674798D01*
X168847745Y-34846952D01*
X168831760Y-34873037D01*
X168740895Y-35092406D01*
X168685465Y-35323289D01*
X168666835Y-35560000D01*
X166613165Y-35560000D01*
X166594535Y-35323289D01*
X166539105Y-35092406D01*
X166448240Y-34873037D01*
X166432255Y-34846952D01*
X166326759Y-34674798D01*
X166326755Y-34674792D01*
X166324176Y-34670584D01*
X166169969Y-34490031D01*
X166165758Y-34486434D01*
X166054438Y-34391358D01*
X165989416Y-34335824D01*
X165985208Y-34333245D01*
X165985202Y-34333241D01*
X165791183Y-34214346D01*
X165786963Y-34211760D01*
X165782393Y-34209867D01*
X165782389Y-34209865D01*
X165572167Y-34122789D01*
X165572165Y-34122788D01*
X165567594Y-34120895D01*
X165487391Y-34101640D01*
X165341524Y-34066620D01*
X165341518Y-34066619D01*
X165336711Y-34065465D01*
X165100000Y-34046835D01*
X164863289Y-34065465D01*
X164858482Y-34066619D01*
X164858476Y-34066620D01*
X164712609Y-34101640D01*
X164632406Y-34120895D01*
X164627835Y-34122788D01*
X164627833Y-34122789D01*
X164417611Y-34209865D01*
X164417607Y-34209867D01*
X164413037Y-34211760D01*
X164408817Y-34214346D01*
X164214798Y-34333241D01*
X164214792Y-34333245D01*
X164210584Y-34335824D01*
X164145562Y-34391358D01*
X164034243Y-34486434D01*
X164030031Y-34490031D01*
X163875824Y-34670584D01*
X163873245Y-34674792D01*
X163873241Y-34674798D01*
X163767745Y-34846952D01*
X163751760Y-34873037D01*
X163660895Y-35092406D01*
X163605465Y-35323289D01*
X163586835Y-35560000D01*
X131812517Y-35560000D01*
X131812517Y-35554525D01*
X131793528Y-35337481D01*
X131791625Y-35326688D01*
X131735236Y-35116239D01*
X131731490Y-35105947D01*
X131639414Y-34908489D01*
X131633931Y-34898994D01*
X131597491Y-34846952D01*
X131587012Y-34838576D01*
X131573566Y-34845644D01*
X130872022Y-35547188D01*
X130864408Y-35561132D01*
X130134356Y-35561132D01*
X130135592Y-35558868D01*
X130135461Y-35557035D01*
X130131210Y-35550420D01*
X129425713Y-34844923D01*
X129413938Y-34838493D01*
X129401923Y-34847789D01*
X129366069Y-34898994D01*
X129360586Y-34908489D01*
X129268510Y-35105947D01*
X129264764Y-35116239D01*
X129208375Y-35326688D01*
X129206472Y-35337481D01*
X129187483Y-35554525D01*
X129187483Y-35565475D01*
X128308500Y-35565475D01*
X128308500Y-34711866D01*
X128301745Y-34649684D01*
X128250615Y-34513295D01*
X128220407Y-34472988D01*
X129778576Y-34472988D01*
X129785644Y-34486434D01*
X130487188Y-35187978D01*
X130501132Y-35195592D01*
X130502965Y-35195461D01*
X130509580Y-35191210D01*
X131215077Y-34485713D01*
X131221507Y-34473938D01*
X131212211Y-34461923D01*
X131161006Y-34426069D01*
X131151511Y-34420586D01*
X130954053Y-34328510D01*
X130943761Y-34324764D01*
X130733312Y-34268375D01*
X130722519Y-34266472D01*
X130505475Y-34247483D01*
X130494525Y-34247483D01*
X130277481Y-34266472D01*
X130266688Y-34268375D01*
X130056239Y-34324764D01*
X130045947Y-34328510D01*
X129848489Y-34420586D01*
X129838994Y-34426069D01*
X129786952Y-34462509D01*
X129778576Y-34472988D01*
X128220407Y-34472988D01*
X128163261Y-34396739D01*
X128046705Y-34309385D01*
X127910316Y-34258255D01*
X127848134Y-34251500D01*
X126151866Y-34251500D01*
X126089684Y-34258255D01*
X125953295Y-34309385D01*
X125836739Y-34396739D01*
X125749385Y-34513295D01*
X125698255Y-34649684D01*
X125691500Y-34711866D01*
X125691500Y-36408134D01*
X117348500Y-36408134D01*
X117348500Y-26034500D01*
X117368502Y-25966379D01*
X117422158Y-25919886D01*
X117474500Y-25908500D01*
X179705500Y-25908500D01*
X179773621Y-25928502D01*
G37*
%TD.AperFunction*%
%TD*%
M02*
