%TF.GenerationSoftware,KiCad,Pcbnew,(6.0.4-0)*%
%TF.CreationDate,2022-04-27T17:17:29-07:00*%
%TF.ProjectId,DC_To_DC_Converter,44435f54-6f5f-4444-935f-436f6e766572,rev?*%
%TF.SameCoordinates,Original*%
%TF.FileFunction,Copper,L1,Top*%
%TF.FilePolarity,Positive*%
%FSLAX46Y46*%
G04 Gerber Fmt 4.6, Leading zero omitted, Abs format (unit mm)*
G04 Created by KiCad (PCBNEW (6.0.4-0)) date 2022-04-27 17:17:29*
%MOMM*%
%LPD*%
G01*
G04 APERTURE LIST*
%TA.AperFunction,ComponentPad*%
%ADD10R,1.600000X1.600000*%
%TD*%
%TA.AperFunction,ComponentPad*%
%ADD11C,1.600000*%
%TD*%
%TA.AperFunction,ComponentPad*%
%ADD12C,2.000000*%
%TD*%
%TA.AperFunction,ComponentPad*%
%ADD13C,3.000000*%
%TD*%
%TA.AperFunction,ComponentPad*%
%ADD14R,2.400000X2.400000*%
%TD*%
%TA.AperFunction,ComponentPad*%
%ADD15O,2.400000X2.400000*%
%TD*%
%TA.AperFunction,SMDPad,CuDef*%
%ADD16R,4.600000X1.100000*%
%TD*%
%TA.AperFunction,SMDPad,CuDef*%
%ADD17R,9.400000X10.800000*%
%TD*%
%TA.AperFunction,ComponentPad*%
%ADD18R,1.600000X1.500000*%
%TD*%
%TA.AperFunction,SMDPad,CuDef*%
%ADD19R,6.000000X6.000000*%
%TD*%
%TA.AperFunction,Conductor*%
%ADD20C,1.367030*%
%TD*%
G04 APERTURE END LIST*
D10*
%TO.P,C1,1*%
%TO.N,Net-(C1-Pad1)*%
X165100000Y-45720000D03*
D11*
%TO.P,C1,2*%
%TO.N,GND*%
X168600000Y-45720000D03*
%TD*%
D12*
%TO.P,FB1,1*%
%TO.N,Net-(FB1-Pad1)*%
X170180000Y-35560000D03*
%TO.P,FB1,2*%
%TO.N,Net-(C1-Pad1)*%
X165100000Y-35560000D03*
%TD*%
D13*
%TO.P,J1,1,Pin_1*%
%TO.N,Net-(FB1-Pad1)*%
X175260000Y-68580000D03*
%TO.P,J1,2,Pin_2*%
%TO.N,GND*%
X170180000Y-68580000D03*
%TD*%
D14*
%TO.P,D1,1,K*%
%TO.N,Net-(D1-Pad1)*%
X147320000Y-68580000D03*
D15*
%TO.P,D1,2,A*%
%TO.N,GND*%
X162560000Y-68580000D03*
%TD*%
D16*
%TO.P,U1,1,VIN*%
%TO.N,Net-(C1-Pad1)*%
X150870000Y-55020000D03*
%TO.P,U1,2,OUT*%
%TO.N,Net-(C2-Pad1)*%
X150870000Y-56720000D03*
%TO.P,U1,3,GND*%
%TO.N,GND*%
X150870000Y-58420000D03*
D17*
X160020000Y-58420000D03*
D16*
%TO.P,U1,4,FB*%
%TO.N,Net-(D1-Pad1)*%
X150870000Y-60120000D03*
%TO.P,U1,5,~{ON}/OFF*%
%TO.N,GND*%
X150870000Y-61820000D03*
%TD*%
D10*
%TO.P,C2,1*%
%TO.N,Net-(C2-Pad1)*%
X134620000Y-35560000D03*
D11*
%TO.P,C2,2*%
%TO.N,GND*%
X138120000Y-35560000D03*
%TD*%
D18*
%TO.P,J2,1,VBUS*%
%TO.N,Net-(C2-Pad1)*%
X155900000Y-40920000D03*
D11*
%TO.P,J2,2,D-*%
%TO.N,unconnected-(J2-Pad2)*%
X153400000Y-40920000D03*
%TO.P,J2,3,D+*%
%TO.N,unconnected-(J2-Pad3)*%
X151400000Y-40920000D03*
%TO.P,J2,4,GND*%
%TO.N,GND*%
X148900000Y-40920000D03*
D13*
%TO.P,J2,5,Shield*%
%TO.N,unconnected-(J2-Pad5)*%
X158970000Y-38210000D03*
X145830000Y-38210000D03*
%TD*%
D19*
%TO.P,L1,1,1*%
%TO.N,Net-(D1-Pad1)*%
X123080000Y-55880000D03*
%TO.P,L1,2,2*%
%TO.N,Net-(C2-Pad1)*%
X141080000Y-55880000D03*
%TD*%
D20*
%TO.N,Net-(C1-Pad1)*%
X160170000Y-45720000D02*
X150870000Y-55020000D01*
X166370000Y-44450000D02*
X165100000Y-45720000D01*
X165100000Y-35560000D02*
X166370000Y-36830000D01*
X166370000Y-36830000D02*
X166370000Y-44450000D01*
X165100000Y-45720000D02*
X160170000Y-45720000D01*
%TO.N,Net-(C2-Pad1)*%
X141080000Y-55880000D02*
X141080000Y-53230000D01*
X134620000Y-51460000D02*
X134620000Y-35560000D01*
X155900000Y-43490000D02*
X155900000Y-40920000D01*
X141080000Y-53230000D02*
X149860000Y-44450000D01*
X141920000Y-56720000D02*
X150870000Y-56720000D01*
X149860000Y-44450000D02*
X154940000Y-44450000D01*
X141080000Y-55880000D02*
X139040000Y-55880000D01*
X141080000Y-55880000D02*
X141920000Y-56720000D01*
X154940000Y-44450000D02*
X155900000Y-43490000D01*
X139040000Y-55880000D02*
X134620000Y-51460000D01*
%TO.N,Net-(D1-Pad1)*%
X147320000Y-68580000D02*
X132740000Y-68580000D01*
X147320000Y-68580000D02*
X147320000Y-60753948D01*
X132740000Y-68580000D02*
X123080000Y-58920000D01*
X147953948Y-60120000D02*
X150870000Y-60120000D01*
X147320000Y-60753948D02*
X147953948Y-60120000D01*
%TO.N,Net-(FB1-Pad1)*%
X175260000Y-40640000D02*
X170180000Y-35560000D01*
X175260000Y-66040000D02*
X175260000Y-40640000D01*
X175260000Y-68580000D02*
X175260000Y-63500000D01*
%TO.N,unconnected-(J2-Pad5)*%
X145830000Y-38210000D02*
X158970000Y-38210000D01*
%TD*%
%TA.AperFunction,Conductor*%
%TO.N,GND*%
G36*
X179773621Y-25928502D02*
G01*
X179820114Y-25982158D01*
X179831500Y-26034500D01*
X179831500Y-73025500D01*
X179811498Y-73093621D01*
X179757842Y-73140114D01*
X179705500Y-73151500D01*
X117474500Y-73151500D01*
X117406379Y-73131498D01*
X117359886Y-73077842D01*
X117348500Y-73025500D01*
X117348500Y-58928134D01*
X119571500Y-58928134D01*
X119578255Y-58990316D01*
X119629385Y-59126705D01*
X119716739Y-59243261D01*
X119833295Y-59330615D01*
X119969684Y-59381745D01*
X120031866Y-59388500D01*
X121903382Y-59388500D01*
X121971503Y-59408502D01*
X122014890Y-59455832D01*
X122049633Y-59521866D01*
X122076009Y-59571999D01*
X122186899Y-59712662D01*
X122189534Y-59715297D01*
X131865679Y-69391443D01*
X131871316Y-69397460D01*
X131889377Y-69418054D01*
X131915956Y-69448362D01*
X131920491Y-69451937D01*
X131920492Y-69451938D01*
X131988445Y-69505508D01*
X131991007Y-69507583D01*
X132061943Y-69566579D01*
X132066976Y-69569398D01*
X132066981Y-69569401D01*
X132066999Y-69569411D01*
X132083448Y-69580402D01*
X132088001Y-69583991D01*
X132169699Y-69626975D01*
X132172570Y-69628534D01*
X132248044Y-69670802D01*
X132248050Y-69670805D01*
X132253086Y-69673625D01*
X132258555Y-69675482D01*
X132258558Y-69675483D01*
X132258587Y-69675493D01*
X132276738Y-69683291D01*
X132281881Y-69685997D01*
X132287386Y-69687706D01*
X132287390Y-69687708D01*
X132370035Y-69713369D01*
X132373173Y-69714389D01*
X132455066Y-69742189D01*
X132455071Y-69742190D01*
X132460538Y-69744046D01*
X132466253Y-69744875D01*
X132466258Y-69744876D01*
X132466287Y-69744880D01*
X132485567Y-69749243D01*
X132491104Y-69750962D01*
X132570344Y-69760340D01*
X132582769Y-69761811D01*
X132586039Y-69762242D01*
X132616043Y-69766592D01*
X132677348Y-69775481D01*
X132763104Y-69772112D01*
X132768050Y-69772015D01*
X145492350Y-69772015D01*
X145560471Y-69792017D01*
X145606964Y-69845673D01*
X145615004Y-69874914D01*
X145615575Y-69874778D01*
X145617402Y-69882460D01*
X145618255Y-69890316D01*
X145669385Y-70026705D01*
X145756739Y-70143261D01*
X145873295Y-70230615D01*
X146009684Y-70281745D01*
X146071866Y-70288500D01*
X148568134Y-70288500D01*
X148630316Y-70281745D01*
X148766705Y-70230615D01*
X148883261Y-70143261D01*
X148970615Y-70026705D01*
X149021745Y-69890316D01*
X149028500Y-69828134D01*
X149028500Y-68853460D01*
X160872852Y-68853460D01*
X160908593Y-69033143D01*
X160911082Y-69042118D01*
X160993708Y-69272250D01*
X160997505Y-69280778D01*
X161113234Y-69496160D01*
X161118245Y-69504027D01*
X161264550Y-69699953D01*
X161270656Y-69706977D01*
X161444316Y-69879127D01*
X161451398Y-69885176D01*
X161648586Y-70029760D01*
X161656505Y-70034708D01*
X161872877Y-70148547D01*
X161881451Y-70152275D01*
X162112282Y-70232885D01*
X162121291Y-70235299D01*
X162288201Y-70266988D01*
X162301261Y-70265704D01*
X162305506Y-70252360D01*
X162814000Y-70252360D01*
X162818171Y-70266565D01*
X162830933Y-70268620D01*
X162867487Y-70264617D01*
X162876649Y-70262919D01*
X163113107Y-70200665D01*
X163121926Y-70197628D01*
X163187037Y-70169654D01*
X168955618Y-70169654D01*
X168962673Y-70179627D01*
X168993679Y-70205551D01*
X169000598Y-70210579D01*
X169225272Y-70351515D01*
X169232807Y-70355556D01*
X169474520Y-70464694D01*
X169482551Y-70467680D01*
X169736832Y-70543002D01*
X169745184Y-70544869D01*
X170007340Y-70584984D01*
X170015874Y-70585700D01*
X170281045Y-70589867D01*
X170289596Y-70589418D01*
X170552883Y-70557557D01*
X170561284Y-70555955D01*
X170817824Y-70488653D01*
X170825926Y-70485926D01*
X171070949Y-70384434D01*
X171078617Y-70380628D01*
X171307598Y-70246822D01*
X171314679Y-70242009D01*
X171394655Y-70179301D01*
X171403125Y-70167442D01*
X171396608Y-70155818D01*
X170192812Y-68952022D01*
X170178868Y-68944408D01*
X170177035Y-68944539D01*
X170170420Y-68948790D01*
X168962910Y-70156300D01*
X168955618Y-70169654D01*
X163187037Y-70169654D01*
X163346584Y-70101107D01*
X163354856Y-70096800D01*
X163562777Y-69968135D01*
X163570317Y-69962657D01*
X163756943Y-69804668D01*
X163763593Y-69798132D01*
X163924813Y-69614295D01*
X163930420Y-69606854D01*
X164062700Y-69401202D01*
X164067147Y-69393011D01*
X164167572Y-69170076D01*
X164170767Y-69161298D01*
X164237135Y-68925973D01*
X164238993Y-68916844D01*
X164247246Y-68851969D01*
X164244958Y-68837708D01*
X164231938Y-68834000D01*
X162832115Y-68834000D01*
X162816876Y-68838475D01*
X162815671Y-68839865D01*
X162814000Y-68847548D01*
X162814000Y-70252360D01*
X162305506Y-70252360D01*
X162306000Y-70250808D01*
X162306000Y-68852115D01*
X162301525Y-68836876D01*
X162300135Y-68835671D01*
X162292452Y-68834000D01*
X160887096Y-68834000D01*
X160874695Y-68837641D01*
X160872852Y-68853460D01*
X149028500Y-68853460D01*
X149028500Y-68563204D01*
X168167665Y-68563204D01*
X168182932Y-68827969D01*
X168184005Y-68836470D01*
X168235065Y-69096722D01*
X168237276Y-69104974D01*
X168323184Y-69355894D01*
X168326499Y-69363779D01*
X168445664Y-69600713D01*
X168450020Y-69608079D01*
X168579347Y-69796250D01*
X168589601Y-69804594D01*
X168603342Y-69797448D01*
X169807978Y-68592812D01*
X169814356Y-68581132D01*
X170544408Y-68581132D01*
X170544539Y-68582965D01*
X170548790Y-68589580D01*
X171755730Y-69796520D01*
X171767939Y-69803187D01*
X171779439Y-69794497D01*
X171876831Y-69661913D01*
X171881418Y-69654685D01*
X172007962Y-69421621D01*
X172011530Y-69413827D01*
X172105271Y-69165750D01*
X172107748Y-69157544D01*
X172166954Y-68899038D01*
X172168294Y-68890577D01*
X172192031Y-68624616D01*
X172192277Y-68619677D01*
X172192666Y-68582485D01*
X172192523Y-68577519D01*
X172174362Y-68311123D01*
X172173201Y-68302649D01*
X172119419Y-68042944D01*
X172117120Y-68034709D01*
X172028588Y-67784705D01*
X172025191Y-67776854D01*
X171903550Y-67541178D01*
X171899122Y-67533866D01*
X171780031Y-67364417D01*
X171769509Y-67356037D01*
X171756121Y-67363089D01*
X170552022Y-68567188D01*
X170544408Y-68581132D01*
X169814356Y-68581132D01*
X169815592Y-68578868D01*
X169815461Y-68577035D01*
X169811210Y-68570420D01*
X168603814Y-67363024D01*
X168591804Y-67356466D01*
X168580064Y-67365434D01*
X168471935Y-67515911D01*
X168467418Y-67523196D01*
X168343325Y-67757567D01*
X168339839Y-67765395D01*
X168248700Y-68014446D01*
X168246311Y-68022670D01*
X168189812Y-68281795D01*
X168188563Y-68290250D01*
X168167754Y-68554653D01*
X168167665Y-68563204D01*
X149028500Y-68563204D01*
X149028500Y-68307976D01*
X160870675Y-68307976D01*
X160873435Y-68322703D01*
X160885614Y-68326000D01*
X162287885Y-68326000D01*
X162303124Y-68321525D01*
X162304329Y-68320135D01*
X162306000Y-68312452D01*
X162306000Y-68307885D01*
X162814000Y-68307885D01*
X162818475Y-68323124D01*
X162819865Y-68324329D01*
X162827548Y-68326000D01*
X164235671Y-68326000D01*
X164249202Y-68322027D01*
X164250634Y-68312068D01*
X164198979Y-68083786D01*
X164196255Y-68074875D01*
X164107633Y-67846983D01*
X164103619Y-67838567D01*
X163982286Y-67626281D01*
X163977070Y-67618548D01*
X163825692Y-67426525D01*
X163819399Y-67419657D01*
X163641294Y-67252112D01*
X163634060Y-67246254D01*
X163433141Y-67106872D01*
X163425115Y-67102144D01*
X163205810Y-66993995D01*
X163202110Y-66992500D01*
X168956584Y-66992500D01*
X168962980Y-67003770D01*
X170167188Y-68207978D01*
X170181132Y-68215592D01*
X170182965Y-68215461D01*
X170189580Y-68211210D01*
X171396604Y-67004186D01*
X171403795Y-66991017D01*
X171396473Y-66980780D01*
X171349233Y-66942115D01*
X171342261Y-66937160D01*
X171116122Y-66798582D01*
X171108552Y-66794624D01*
X170865704Y-66688022D01*
X170857644Y-66685120D01*
X170602592Y-66612467D01*
X170594214Y-66610685D01*
X170331656Y-66573318D01*
X170323111Y-66572691D01*
X170057908Y-66571302D01*
X170049374Y-66571839D01*
X169786433Y-66606456D01*
X169778035Y-66608149D01*
X169522238Y-66678127D01*
X169514143Y-66680946D01*
X169270199Y-66784997D01*
X169262577Y-66788881D01*
X169035013Y-66925075D01*
X169027981Y-66929962D01*
X168965053Y-66980377D01*
X168956584Y-66992500D01*
X163202110Y-66992500D01*
X163197177Y-66990507D01*
X162964288Y-66915958D01*
X162955238Y-66913785D01*
X162831880Y-66893696D01*
X162818286Y-66895393D01*
X162814000Y-66909500D01*
X162814000Y-68307885D01*
X162306000Y-68307885D01*
X162306000Y-66908859D01*
X162301982Y-66895175D01*
X162288290Y-66893154D01*
X162208521Y-66904010D01*
X162199403Y-66905948D01*
X161964668Y-66974367D01*
X161955915Y-66977639D01*
X161733869Y-67080004D01*
X161725714Y-67084524D01*
X161521233Y-67218587D01*
X161513828Y-67224270D01*
X161331413Y-67387082D01*
X161324935Y-67393790D01*
X161168584Y-67581781D01*
X161163163Y-67589381D01*
X161036322Y-67798409D01*
X161032084Y-67806726D01*
X160937529Y-68032214D01*
X160934572Y-68041052D01*
X160874382Y-68278048D01*
X160872764Y-68287228D01*
X160870675Y-68307976D01*
X149028500Y-68307976D01*
X149028500Y-67331866D01*
X149021745Y-67269684D01*
X148970615Y-67133295D01*
X148883261Y-67016739D01*
X148766705Y-66929385D01*
X148630316Y-66878255D01*
X148622460Y-66877402D01*
X148614778Y-66875575D01*
X148615203Y-66873789D01*
X148558844Y-66850370D01*
X148518418Y-66792006D01*
X148512015Y-66752350D01*
X148512015Y-63864669D01*
X154812001Y-63864669D01*
X154812371Y-63871490D01*
X154817895Y-63922352D01*
X154821521Y-63937604D01*
X154866676Y-64058054D01*
X154875214Y-64073649D01*
X154951715Y-64175724D01*
X154964276Y-64188285D01*
X155066351Y-64264786D01*
X155081946Y-64273324D01*
X155202394Y-64318478D01*
X155217649Y-64322105D01*
X155268514Y-64327631D01*
X155275328Y-64328000D01*
X159747885Y-64328000D01*
X159763124Y-64323525D01*
X159764329Y-64322135D01*
X159766000Y-64314452D01*
X159766000Y-64309884D01*
X160274000Y-64309884D01*
X160278475Y-64325123D01*
X160279865Y-64326328D01*
X160287548Y-64327999D01*
X164764669Y-64327999D01*
X164771490Y-64327629D01*
X164822352Y-64322105D01*
X164837604Y-64318479D01*
X164958054Y-64273324D01*
X164973649Y-64264786D01*
X165075724Y-64188285D01*
X165088285Y-64175724D01*
X165164786Y-64073649D01*
X165173324Y-64058054D01*
X165218478Y-63937606D01*
X165222105Y-63922351D01*
X165227631Y-63871486D01*
X165228000Y-63864672D01*
X165228000Y-58692115D01*
X165223525Y-58676876D01*
X165222135Y-58675671D01*
X165214452Y-58674000D01*
X160292115Y-58674000D01*
X160276876Y-58678475D01*
X160275671Y-58679865D01*
X160274000Y-58687548D01*
X160274000Y-64309884D01*
X159766000Y-64309884D01*
X159766000Y-58692115D01*
X159761525Y-58676876D01*
X159760135Y-58675671D01*
X159752452Y-58674000D01*
X154830116Y-58674000D01*
X154814877Y-58678475D01*
X154813672Y-58679865D01*
X154812001Y-58687548D01*
X154812001Y-63864669D01*
X148512015Y-63864669D01*
X148512015Y-63004000D01*
X148532017Y-62935879D01*
X148585673Y-62889386D01*
X148638015Y-62878000D01*
X150597885Y-62878000D01*
X150613124Y-62873525D01*
X150614329Y-62872135D01*
X150616000Y-62864452D01*
X150616000Y-62859884D01*
X151124000Y-62859884D01*
X151128475Y-62875123D01*
X151129865Y-62876328D01*
X151137548Y-62877999D01*
X153214669Y-62877999D01*
X153221490Y-62877629D01*
X153272352Y-62872105D01*
X153287604Y-62868479D01*
X153408054Y-62823324D01*
X153423649Y-62814786D01*
X153525724Y-62738285D01*
X153538285Y-62725724D01*
X153614786Y-62623649D01*
X153623324Y-62608054D01*
X153668478Y-62487606D01*
X153672105Y-62472351D01*
X153677631Y-62421486D01*
X153678000Y-62414672D01*
X153678000Y-62092115D01*
X153673525Y-62076876D01*
X153672135Y-62075671D01*
X153664452Y-62074000D01*
X151142115Y-62074000D01*
X151126876Y-62078475D01*
X151125671Y-62079865D01*
X151124000Y-62087548D01*
X151124000Y-62859884D01*
X150616000Y-62859884D01*
X150616000Y-61692000D01*
X150636002Y-61623879D01*
X150689658Y-61577386D01*
X150742000Y-61566000D01*
X153659884Y-61566000D01*
X153675123Y-61561525D01*
X153676328Y-61560135D01*
X153677999Y-61552452D01*
X153677999Y-61225331D01*
X153677629Y-61218510D01*
X153672105Y-61167648D01*
X153668479Y-61152396D01*
X153623321Y-61031939D01*
X153622826Y-61031034D01*
X153622607Y-61030034D01*
X153620172Y-61023538D01*
X153621110Y-61023186D01*
X153607657Y-60961677D01*
X153620838Y-60916788D01*
X153620615Y-60916705D01*
X153621756Y-60913663D01*
X153621758Y-60913656D01*
X153671745Y-60780316D01*
X153678500Y-60718134D01*
X153678500Y-59521866D01*
X153671745Y-59459684D01*
X153620615Y-59323295D01*
X153621307Y-59323036D01*
X153607657Y-59260626D01*
X153620580Y-59216615D01*
X153620172Y-59216462D01*
X153622262Y-59210888D01*
X153622826Y-59208966D01*
X153623321Y-59208061D01*
X153668478Y-59087606D01*
X153672105Y-59072351D01*
X153677631Y-59021486D01*
X153678000Y-59014672D01*
X153678000Y-58692115D01*
X153673525Y-58676876D01*
X153672135Y-58675671D01*
X153664452Y-58674000D01*
X148080116Y-58674000D01*
X148064877Y-58678475D01*
X148063672Y-58679865D01*
X148062001Y-58687548D01*
X148062001Y-58797895D01*
X148041999Y-58866016D01*
X147988343Y-58912509D01*
X147934119Y-58922461D01*
X147934147Y-58923515D01*
X147928378Y-58923666D01*
X147922611Y-58923288D01*
X147830914Y-58934142D01*
X147827654Y-58934483D01*
X147800932Y-58936939D01*
X147741545Y-58942395D01*
X147741543Y-58942395D01*
X147735790Y-58942924D01*
X147730236Y-58944490D01*
X147730227Y-58944492D01*
X147730204Y-58944499D01*
X147710823Y-58948355D01*
X147705052Y-58949038D01*
X147616893Y-58976412D01*
X147613788Y-58977331D01*
X147530509Y-59000818D01*
X147530501Y-59000821D01*
X147524938Y-59002390D01*
X147519758Y-59004944D01*
X147519751Y-59004947D01*
X147519732Y-59004957D01*
X147501380Y-59012279D01*
X147501362Y-59012285D01*
X147495829Y-59014003D01*
X147490722Y-59016690D01*
X147490717Y-59016692D01*
X147414183Y-59056959D01*
X147411245Y-59058457D01*
X147391377Y-59068255D01*
X147328453Y-59099286D01*
X147323804Y-59102758D01*
X147307082Y-59113308D01*
X147301949Y-59116009D01*
X147297412Y-59119586D01*
X147297407Y-59119589D01*
X147229491Y-59173131D01*
X147226873Y-59175140D01*
X147171331Y-59216615D01*
X147152917Y-59230365D01*
X147148993Y-59234610D01*
X147094647Y-59293401D01*
X147091217Y-59296968D01*
X146508549Y-59879635D01*
X146502532Y-59885271D01*
X146451638Y-59929904D01*
X146448063Y-59934439D01*
X146448062Y-59934440D01*
X146394492Y-60002393D01*
X146392417Y-60004955D01*
X146333421Y-60075891D01*
X146330602Y-60080924D01*
X146330599Y-60080929D01*
X146330589Y-60080947D01*
X146319598Y-60097396D01*
X146316009Y-60101949D01*
X146273040Y-60183619D01*
X146271466Y-60186518D01*
X146229198Y-60261992D01*
X146229195Y-60261998D01*
X146226375Y-60267034D01*
X146224518Y-60272503D01*
X146224517Y-60272506D01*
X146224507Y-60272535D01*
X146216709Y-60290686D01*
X146214003Y-60295829D01*
X146212294Y-60301334D01*
X146212292Y-60301338D01*
X146186631Y-60383983D01*
X146185611Y-60387121D01*
X146157811Y-60469014D01*
X146157810Y-60469019D01*
X146155954Y-60474486D01*
X146155125Y-60480201D01*
X146155124Y-60480206D01*
X146155120Y-60480235D01*
X146150757Y-60499515D01*
X146149038Y-60505052D01*
X146139660Y-60584292D01*
X146138189Y-60596717D01*
X146137758Y-60599987D01*
X146124519Y-60691296D01*
X146125707Y-60721531D01*
X146127888Y-60777052D01*
X146127985Y-60781998D01*
X146127985Y-66752350D01*
X146107983Y-66820471D01*
X146054327Y-66866964D01*
X146025086Y-66875004D01*
X146025222Y-66875575D01*
X146017540Y-66877402D01*
X146009684Y-66878255D01*
X145873295Y-66929385D01*
X145756739Y-67016739D01*
X145669385Y-67133295D01*
X145618255Y-67269684D01*
X145617402Y-67277540D01*
X145615575Y-67285222D01*
X145613789Y-67284797D01*
X145590370Y-67341156D01*
X145532006Y-67381582D01*
X145492350Y-67387985D01*
X133285938Y-67387985D01*
X133217817Y-67367983D01*
X133196843Y-67351080D01*
X125449359Y-59603595D01*
X125415333Y-59541283D01*
X125420398Y-59470468D01*
X125462945Y-59413632D01*
X125529465Y-59388821D01*
X125538454Y-59388500D01*
X126128134Y-59388500D01*
X126190316Y-59381745D01*
X126326705Y-59330615D01*
X126443261Y-59243261D01*
X126530615Y-59126705D01*
X126581745Y-58990316D01*
X126588500Y-58928134D01*
X126588500Y-52831866D01*
X126581745Y-52769684D01*
X126530615Y-52633295D01*
X126443261Y-52516739D01*
X126326705Y-52429385D01*
X126190316Y-52378255D01*
X126128134Y-52371500D01*
X120031866Y-52371500D01*
X119969684Y-52378255D01*
X119833295Y-52429385D01*
X119716739Y-52516739D01*
X119629385Y-52633295D01*
X119578255Y-52769684D01*
X119571500Y-52831866D01*
X119571500Y-58928134D01*
X117348500Y-58928134D01*
X117348500Y-36408134D01*
X133311500Y-36408134D01*
X133318255Y-36470316D01*
X133369385Y-36606705D01*
X133402811Y-36651305D01*
X133427659Y-36717811D01*
X133427985Y-36726870D01*
X133427985Y-51415552D01*
X133427715Y-51423793D01*
X133423288Y-51491338D01*
X133423967Y-51497073D01*
X133434140Y-51583023D01*
X133434483Y-51586297D01*
X133442924Y-51678158D01*
X133444490Y-51683712D01*
X133444492Y-51683721D01*
X133444499Y-51683744D01*
X133448355Y-51703125D01*
X133449038Y-51708896D01*
X133476412Y-51797055D01*
X133477331Y-51800160D01*
X133500818Y-51883439D01*
X133500821Y-51883447D01*
X133502390Y-51889010D01*
X133504944Y-51894190D01*
X133504947Y-51894197D01*
X133504957Y-51894216D01*
X133512279Y-51912568D01*
X133514003Y-51918119D01*
X133516690Y-51923226D01*
X133516692Y-51923231D01*
X133556959Y-51999765D01*
X133558457Y-52002703D01*
X133599286Y-52085495D01*
X133602755Y-52090140D01*
X133613308Y-52106866D01*
X133616009Y-52111999D01*
X133619586Y-52116536D01*
X133619589Y-52116541D01*
X133673131Y-52184457D01*
X133675138Y-52187072D01*
X133730365Y-52261031D01*
X133734607Y-52264952D01*
X133793402Y-52319302D01*
X133796968Y-52322731D01*
X137534595Y-56060359D01*
X137568621Y-56122671D01*
X137571500Y-56149454D01*
X137571500Y-58928134D01*
X137578255Y-58990316D01*
X137629385Y-59126705D01*
X137716739Y-59243261D01*
X137833295Y-59330615D01*
X137969684Y-59381745D01*
X138031866Y-59388500D01*
X144128134Y-59388500D01*
X144190316Y-59381745D01*
X144326705Y-59330615D01*
X144443261Y-59243261D01*
X144530615Y-59126705D01*
X144581745Y-58990316D01*
X144588500Y-58928134D01*
X144588500Y-58038015D01*
X144608502Y-57969894D01*
X144662158Y-57923401D01*
X144714500Y-57912015D01*
X147936000Y-57912015D01*
X148004121Y-57932017D01*
X148050614Y-57985673D01*
X148062000Y-58038015D01*
X148062000Y-58147885D01*
X148066475Y-58163124D01*
X148067865Y-58164329D01*
X148075548Y-58166000D01*
X153659884Y-58166000D01*
X153675123Y-58161525D01*
X153676328Y-58160135D01*
X153677999Y-58152452D01*
X153677999Y-57825331D01*
X153677629Y-57818510D01*
X153672105Y-57767648D01*
X153668479Y-57752396D01*
X153623321Y-57631939D01*
X153622826Y-57631034D01*
X153622607Y-57630034D01*
X153620172Y-57623538D01*
X153621110Y-57623186D01*
X153607657Y-57561677D01*
X153620838Y-57516788D01*
X153620615Y-57516705D01*
X153621756Y-57513663D01*
X153621758Y-57513656D01*
X153671745Y-57380316D01*
X153678500Y-57318134D01*
X153678500Y-56121866D01*
X153671745Y-56059684D01*
X153620615Y-55923295D01*
X153621466Y-55922976D01*
X153607945Y-55861151D01*
X153620958Y-55816834D01*
X153620615Y-55816705D01*
X153622372Y-55812019D01*
X153622373Y-55812015D01*
X153671745Y-55680316D01*
X153678500Y-55618134D01*
X153678500Y-54421866D01*
X153671745Y-54359684D01*
X153620615Y-54223295D01*
X153571256Y-54157435D01*
X153546408Y-54090930D01*
X153561461Y-54021548D01*
X153582987Y-53992776D01*
X154596905Y-52978858D01*
X154659217Y-52944832D01*
X154730032Y-52949897D01*
X154786868Y-52992444D01*
X154811679Y-53058964D01*
X154812000Y-53067953D01*
X154812000Y-58147885D01*
X154816475Y-58163124D01*
X154817865Y-58164329D01*
X154825548Y-58166000D01*
X159747885Y-58166000D01*
X159763124Y-58161525D01*
X159764329Y-58160135D01*
X159766000Y-58152452D01*
X159766000Y-58147885D01*
X160274000Y-58147885D01*
X160278475Y-58163124D01*
X160279865Y-58164329D01*
X160287548Y-58166000D01*
X165209884Y-58166000D01*
X165225123Y-58161525D01*
X165226328Y-58160135D01*
X165227999Y-58152452D01*
X165227999Y-52975331D01*
X165227629Y-52968510D01*
X165222105Y-52917648D01*
X165218479Y-52902396D01*
X165173324Y-52781946D01*
X165164786Y-52766351D01*
X165088285Y-52664276D01*
X165075724Y-52651715D01*
X164973649Y-52575214D01*
X164958054Y-52566676D01*
X164837606Y-52521522D01*
X164822351Y-52517895D01*
X164771486Y-52512369D01*
X164764672Y-52512000D01*
X160292115Y-52512000D01*
X160276876Y-52516475D01*
X160275671Y-52517865D01*
X160274000Y-52525548D01*
X160274000Y-58147885D01*
X159766000Y-58147885D01*
X159766000Y-52530116D01*
X159761525Y-52514877D01*
X159760135Y-52513672D01*
X159752452Y-52512001D01*
X155367952Y-52512001D01*
X155299831Y-52491999D01*
X155253338Y-52438343D01*
X155243234Y-52368069D01*
X155272728Y-52303489D01*
X155278857Y-52296906D01*
X160626844Y-46948920D01*
X160689156Y-46914894D01*
X160715939Y-46912015D01*
X163933130Y-46912015D01*
X164001251Y-46932017D01*
X164008691Y-46937186D01*
X164053295Y-46970615D01*
X164189684Y-47021745D01*
X164251866Y-47028500D01*
X165948134Y-47028500D01*
X166010316Y-47021745D01*
X166146705Y-46970615D01*
X166263261Y-46883261D01*
X166321119Y-46806062D01*
X167878493Y-46806062D01*
X167887789Y-46818077D01*
X167938994Y-46853931D01*
X167948489Y-46859414D01*
X168145947Y-46951490D01*
X168156239Y-46955236D01*
X168366688Y-47011625D01*
X168377481Y-47013528D01*
X168594525Y-47032517D01*
X168605475Y-47032517D01*
X168822519Y-47013528D01*
X168833312Y-47011625D01*
X169043761Y-46955236D01*
X169054053Y-46951490D01*
X169251511Y-46859414D01*
X169261006Y-46853931D01*
X169313048Y-46817491D01*
X169321424Y-46807012D01*
X169314356Y-46793566D01*
X168612812Y-46092022D01*
X168598868Y-46084408D01*
X168597035Y-46084539D01*
X168590420Y-46088790D01*
X167884923Y-46794287D01*
X167878493Y-46806062D01*
X166321119Y-46806062D01*
X166350615Y-46766705D01*
X166401745Y-46630316D01*
X166408500Y-46568134D01*
X166408500Y-46149454D01*
X166428502Y-46081333D01*
X166445405Y-46060358D01*
X167090273Y-45415491D01*
X167152585Y-45381466D01*
X167223401Y-45386531D01*
X167280236Y-45429078D01*
X167305047Y-45495598D01*
X167304889Y-45515568D01*
X167287483Y-45714525D01*
X167287483Y-45725475D01*
X167306472Y-45942519D01*
X167308375Y-45953312D01*
X167364764Y-46163761D01*
X167368510Y-46174053D01*
X167460586Y-46371511D01*
X167466069Y-46381006D01*
X167502509Y-46433048D01*
X167512988Y-46441424D01*
X167526434Y-46434356D01*
X168239658Y-45721132D01*
X168964408Y-45721132D01*
X168964539Y-45722965D01*
X168968790Y-45729580D01*
X169674287Y-46435077D01*
X169686062Y-46441507D01*
X169698077Y-46432211D01*
X169733931Y-46381006D01*
X169739414Y-46371511D01*
X169831490Y-46174053D01*
X169835236Y-46163761D01*
X169891625Y-45953312D01*
X169893528Y-45942519D01*
X169912517Y-45725475D01*
X169912517Y-45714525D01*
X169893528Y-45497481D01*
X169891625Y-45486688D01*
X169835236Y-45276239D01*
X169831490Y-45265947D01*
X169739414Y-45068489D01*
X169733931Y-45058994D01*
X169697491Y-45006952D01*
X169687012Y-44998576D01*
X169673566Y-45005644D01*
X168972022Y-45707188D01*
X168964408Y-45721132D01*
X168239658Y-45721132D01*
X169315077Y-44645713D01*
X169321507Y-44633938D01*
X169312211Y-44621923D01*
X169261006Y-44586069D01*
X169251511Y-44580586D01*
X169054053Y-44488510D01*
X169043761Y-44484764D01*
X168833312Y-44428375D01*
X168822519Y-44426472D01*
X168605475Y-44407483D01*
X168594525Y-44407483D01*
X168377481Y-44426472D01*
X168366688Y-44428375D01*
X168156239Y-44484764D01*
X168145947Y-44488510D01*
X167948489Y-44580586D01*
X167938993Y-44586069D01*
X167760527Y-44711032D01*
X167758814Y-44712470D01*
X167757908Y-44712867D01*
X167756022Y-44714187D01*
X167755757Y-44713808D01*
X167693773Y-44740936D01*
X167623668Y-44729719D01*
X167570757Y-44682382D01*
X167551837Y-44613953D01*
X167553125Y-44597870D01*
X167560205Y-44549038D01*
X167565481Y-44512653D01*
X167562112Y-44426897D01*
X167562015Y-44421951D01*
X167562015Y-36874443D01*
X167562285Y-36866202D01*
X167566334Y-36804428D01*
X167566712Y-36798662D01*
X167555859Y-36706971D01*
X167555516Y-36703696D01*
X167547605Y-36617597D01*
X167547605Y-36617595D01*
X167547076Y-36611842D01*
X167545510Y-36606288D01*
X167545508Y-36606279D01*
X167545501Y-36606256D01*
X167541645Y-36586875D01*
X167540962Y-36581104D01*
X167513588Y-36492945D01*
X167512669Y-36489840D01*
X167489182Y-36406561D01*
X167489179Y-36406553D01*
X167487610Y-36400990D01*
X167485056Y-36395810D01*
X167485053Y-36395803D01*
X167485043Y-36395784D01*
X167477721Y-36377432D01*
X167477709Y-36377395D01*
X167475997Y-36371881D01*
X167473310Y-36366774D01*
X167473308Y-36366769D01*
X167433041Y-36290235D01*
X167431543Y-36287297D01*
X167393268Y-36209684D01*
X167390714Y-36204505D01*
X167387242Y-36199856D01*
X167376691Y-36183133D01*
X167376681Y-36183114D01*
X167373991Y-36178001D01*
X167316846Y-36105512D01*
X167314849Y-36102910D01*
X167263092Y-36033599D01*
X167259635Y-36028969D01*
X167196611Y-35970710D01*
X167193045Y-35967281D01*
X166785764Y-35560000D01*
X168666835Y-35560000D01*
X168685465Y-35796711D01*
X168740895Y-36027594D01*
X168742788Y-36032165D01*
X168742789Y-36032167D01*
X168829695Y-36241977D01*
X168831760Y-36246963D01*
X168834346Y-36251183D01*
X168953241Y-36445202D01*
X168953245Y-36445208D01*
X168955824Y-36449416D01*
X169110031Y-36629969D01*
X169113787Y-36633177D01*
X169115087Y-36634287D01*
X169290584Y-36784176D01*
X169294792Y-36786755D01*
X169294798Y-36786759D01*
X169488817Y-36905654D01*
X169493037Y-36908240D01*
X169497607Y-36910133D01*
X169497611Y-36910135D01*
X169585574Y-36946570D01*
X169712406Y-36999105D01*
X169943289Y-37054535D01*
X169948222Y-37054923D01*
X169953114Y-37055698D01*
X169952865Y-37057271D01*
X170012649Y-37080051D01*
X170025527Y-37091290D01*
X174031080Y-41096844D01*
X174065106Y-41159156D01*
X174067985Y-41185939D01*
X174067985Y-66900860D01*
X174047983Y-66968981D01*
X174020765Y-66999194D01*
X173900666Y-67095411D01*
X173900660Y-67095417D01*
X173897318Y-67098094D01*
X173708808Y-67296742D01*
X173549002Y-67519136D01*
X173420857Y-67761161D01*
X173419385Y-67765184D01*
X173419383Y-67765188D01*
X173412314Y-67784506D01*
X173326743Y-68018337D01*
X173268404Y-68285907D01*
X173246917Y-68558918D01*
X173262682Y-68832320D01*
X173263507Y-68836525D01*
X173263508Y-68836533D01*
X173284698Y-68944539D01*
X173315405Y-69101053D01*
X173316792Y-69105103D01*
X173316793Y-69105108D01*
X173337605Y-69165895D01*
X173404112Y-69360144D01*
X173406039Y-69363975D01*
X173514890Y-69580402D01*
X173527160Y-69604799D01*
X173529586Y-69608328D01*
X173529589Y-69608334D01*
X173658741Y-69796250D01*
X173682274Y-69830490D01*
X173866582Y-70033043D01*
X174076675Y-70208707D01*
X174080316Y-70210991D01*
X174305024Y-70351951D01*
X174305028Y-70351953D01*
X174308664Y-70354234D01*
X174376544Y-70384883D01*
X174554345Y-70465164D01*
X174554349Y-70465166D01*
X174558257Y-70466930D01*
X174562377Y-70468150D01*
X174562376Y-70468150D01*
X174816723Y-70543491D01*
X174816727Y-70543492D01*
X174820836Y-70544709D01*
X174825070Y-70545357D01*
X174825075Y-70545358D01*
X175087298Y-70585483D01*
X175087300Y-70585483D01*
X175091540Y-70586132D01*
X175230912Y-70588322D01*
X175361071Y-70590367D01*
X175361077Y-70590367D01*
X175365362Y-70590434D01*
X175637235Y-70557534D01*
X175902127Y-70488041D01*
X175906087Y-70486401D01*
X175906092Y-70486399D01*
X176028631Y-70435641D01*
X176155136Y-70383241D01*
X176327366Y-70282598D01*
X176387879Y-70247237D01*
X176387880Y-70247236D01*
X176391582Y-70245073D01*
X176607089Y-70076094D01*
X176648809Y-70033043D01*
X176731059Y-69948167D01*
X176797669Y-69879431D01*
X176800202Y-69875983D01*
X176800206Y-69875978D01*
X176957257Y-69662178D01*
X176959795Y-69658723D01*
X176961841Y-69654955D01*
X177088418Y-69421830D01*
X177088419Y-69421828D01*
X177090468Y-69418054D01*
X177187269Y-69161877D01*
X177248407Y-68894933D01*
X177252109Y-68853460D01*
X177272531Y-68624627D01*
X177272532Y-68624616D01*
X177272751Y-68622161D01*
X177273193Y-68580000D01*
X177271465Y-68554648D01*
X177254859Y-68311055D01*
X177254858Y-68311049D01*
X177254567Y-68306778D01*
X177199032Y-68038612D01*
X177107617Y-67780465D01*
X176982013Y-67537112D01*
X176972040Y-67522921D01*
X176903279Y-67425084D01*
X176824545Y-67313057D01*
X176657500Y-67133295D01*
X176641046Y-67115588D01*
X176641043Y-67115585D01*
X176638125Y-67112445D01*
X176498208Y-66997924D01*
X176458163Y-66939300D01*
X176452015Y-66900421D01*
X176452015Y-40684449D01*
X176452285Y-40676208D01*
X176456334Y-40614429D01*
X176456712Y-40608663D01*
X176445858Y-40516966D01*
X176445516Y-40513699D01*
X176437605Y-40427597D01*
X176437605Y-40427595D01*
X176437076Y-40421842D01*
X176435510Y-40416288D01*
X176435508Y-40416279D01*
X176435501Y-40416256D01*
X176431645Y-40396875D01*
X176430962Y-40391104D01*
X176403588Y-40302945D01*
X176402669Y-40299840D01*
X176379181Y-40216558D01*
X176379178Y-40216551D01*
X176377610Y-40210990D01*
X176375056Y-40205810D01*
X176375053Y-40205803D01*
X176375043Y-40205784D01*
X176367721Y-40187432D01*
X176367709Y-40187395D01*
X176365997Y-40181881D01*
X176363310Y-40176774D01*
X176363308Y-40176769D01*
X176323041Y-40100235D01*
X176321543Y-40097297D01*
X176283268Y-40019684D01*
X176280714Y-40014505D01*
X176277242Y-40009856D01*
X176266691Y-39993133D01*
X176266682Y-39993116D01*
X176263991Y-39988001D01*
X176260414Y-39983464D01*
X176260411Y-39983459D01*
X176206869Y-39915543D01*
X176204860Y-39912925D01*
X176153092Y-39843598D01*
X176153090Y-39843595D01*
X176149635Y-39838969D01*
X176086598Y-39780698D01*
X176083032Y-39777269D01*
X171711290Y-35405527D01*
X171677264Y-35343215D01*
X171675774Y-35333102D01*
X171675698Y-35333114D01*
X171674923Y-35328222D01*
X171674535Y-35323289D01*
X171619105Y-35092406D01*
X171528240Y-34873037D01*
X171512255Y-34846952D01*
X171406759Y-34674798D01*
X171406755Y-34674792D01*
X171404176Y-34670584D01*
X171249969Y-34490031D01*
X171245758Y-34486434D01*
X171134438Y-34391358D01*
X171069416Y-34335824D01*
X171065208Y-34333245D01*
X171065202Y-34333241D01*
X170871183Y-34214346D01*
X170866963Y-34211760D01*
X170862393Y-34209867D01*
X170862389Y-34209865D01*
X170652167Y-34122789D01*
X170652165Y-34122788D01*
X170647594Y-34120895D01*
X170567391Y-34101640D01*
X170421524Y-34066620D01*
X170421518Y-34066619D01*
X170416711Y-34065465D01*
X170180000Y-34046835D01*
X169943289Y-34065465D01*
X169938482Y-34066619D01*
X169938476Y-34066620D01*
X169792609Y-34101640D01*
X169712406Y-34120895D01*
X169707835Y-34122788D01*
X169707833Y-34122789D01*
X169497611Y-34209865D01*
X169497607Y-34209867D01*
X169493037Y-34211760D01*
X169488817Y-34214346D01*
X169294798Y-34333241D01*
X169294792Y-34333245D01*
X169290584Y-34335824D01*
X169225562Y-34391358D01*
X169114243Y-34486434D01*
X169110031Y-34490031D01*
X168955824Y-34670584D01*
X168953245Y-34674792D01*
X168953241Y-34674798D01*
X168847745Y-34846952D01*
X168831760Y-34873037D01*
X168740895Y-35092406D01*
X168685465Y-35323289D01*
X168666835Y-35560000D01*
X166785764Y-35560000D01*
X166631290Y-35405526D01*
X166597264Y-35343214D01*
X166595774Y-35333102D01*
X166595698Y-35333114D01*
X166594923Y-35328222D01*
X166594535Y-35323289D01*
X166539105Y-35092406D01*
X166448240Y-34873037D01*
X166432255Y-34846952D01*
X166326759Y-34674798D01*
X166326755Y-34674792D01*
X166324176Y-34670584D01*
X166169969Y-34490031D01*
X166165758Y-34486434D01*
X166054438Y-34391358D01*
X165989416Y-34335824D01*
X165985208Y-34333245D01*
X165985202Y-34333241D01*
X165791183Y-34214346D01*
X165786963Y-34211760D01*
X165782393Y-34209867D01*
X165782389Y-34209865D01*
X165572167Y-34122789D01*
X165572165Y-34122788D01*
X165567594Y-34120895D01*
X165487391Y-34101640D01*
X165341524Y-34066620D01*
X165341518Y-34066619D01*
X165336711Y-34065465D01*
X165100000Y-34046835D01*
X164863289Y-34065465D01*
X164858482Y-34066619D01*
X164858476Y-34066620D01*
X164712609Y-34101640D01*
X164632406Y-34120895D01*
X164627835Y-34122788D01*
X164627833Y-34122789D01*
X164417611Y-34209865D01*
X164417607Y-34209867D01*
X164413037Y-34211760D01*
X164408817Y-34214346D01*
X164214798Y-34333241D01*
X164214792Y-34333245D01*
X164210584Y-34335824D01*
X164145562Y-34391358D01*
X164034243Y-34486434D01*
X164030031Y-34490031D01*
X163875824Y-34670584D01*
X163873245Y-34674792D01*
X163873241Y-34674798D01*
X163767745Y-34846952D01*
X163751760Y-34873037D01*
X163660895Y-35092406D01*
X163605465Y-35323289D01*
X163586835Y-35560000D01*
X163605465Y-35796711D01*
X163660895Y-36027594D01*
X163662788Y-36032165D01*
X163662789Y-36032167D01*
X163749695Y-36241977D01*
X163751760Y-36246963D01*
X163754346Y-36251183D01*
X163873241Y-36445202D01*
X163873245Y-36445208D01*
X163875824Y-36449416D01*
X164030031Y-36629969D01*
X164033787Y-36633177D01*
X164035087Y-36634287D01*
X164210584Y-36784176D01*
X164214792Y-36786755D01*
X164214798Y-36786759D01*
X164408817Y-36905654D01*
X164413037Y-36908240D01*
X164417607Y-36910133D01*
X164417611Y-36910135D01*
X164505574Y-36946570D01*
X164632406Y-36999105D01*
X164863289Y-37054535D01*
X164868222Y-37054923D01*
X164873114Y-37055698D01*
X164872865Y-37057272D01*
X164932651Y-37080053D01*
X164945527Y-37091290D01*
X165141081Y-37286845D01*
X165175106Y-37349157D01*
X165177985Y-37375940D01*
X165177985Y-43904061D01*
X165157983Y-43972182D01*
X165141080Y-43993156D01*
X164759641Y-44374595D01*
X164697329Y-44408621D01*
X164670546Y-44411500D01*
X164251866Y-44411500D01*
X164189684Y-44418255D01*
X164053295Y-44469385D01*
X164032775Y-44484764D01*
X164008695Y-44502811D01*
X163942189Y-44527659D01*
X163933130Y-44527985D01*
X160214448Y-44527985D01*
X160206207Y-44527715D01*
X160189074Y-44526592D01*
X160138662Y-44523288D01*
X160046971Y-44534141D01*
X160043703Y-44534483D01*
X160016426Y-44536990D01*
X159957597Y-44542395D01*
X159957595Y-44542395D01*
X159951842Y-44542924D01*
X159946288Y-44544490D01*
X159946279Y-44544492D01*
X159946256Y-44544499D01*
X159926875Y-44548355D01*
X159921104Y-44549038D01*
X159832945Y-44576412D01*
X159829840Y-44577331D01*
X159746561Y-44600818D01*
X159746553Y-44600821D01*
X159740990Y-44602390D01*
X159735810Y-44604944D01*
X159735803Y-44604947D01*
X159735784Y-44604957D01*
X159717432Y-44612279D01*
X159717414Y-44612285D01*
X159711881Y-44614003D01*
X159706774Y-44616690D01*
X159706769Y-44616692D01*
X159630235Y-44656959D01*
X159627297Y-44658457D01*
X159544505Y-44699286D01*
X159539856Y-44702758D01*
X159523134Y-44713308D01*
X159518001Y-44716009D01*
X159445527Y-44773143D01*
X159442926Y-44775139D01*
X159368969Y-44830365D01*
X159365045Y-44834610D01*
X159310710Y-44893389D01*
X159307281Y-44896955D01*
X150279641Y-53924595D01*
X150217329Y-53958621D01*
X150190546Y-53961500D01*
X148521866Y-53961500D01*
X148459684Y-53968255D01*
X148323295Y-54019385D01*
X148206739Y-54106739D01*
X148119385Y-54223295D01*
X148068255Y-54359684D01*
X148061500Y-54421866D01*
X148061500Y-55401985D01*
X148041498Y-55470106D01*
X147987842Y-55516599D01*
X147935500Y-55527985D01*
X144714500Y-55527985D01*
X144646379Y-55507983D01*
X144599886Y-55454327D01*
X144588500Y-55401985D01*
X144588500Y-52831866D01*
X144581745Y-52769684D01*
X144530615Y-52633295D01*
X144443261Y-52516739D01*
X144326705Y-52429385D01*
X144190316Y-52378255D01*
X144128134Y-52371500D01*
X143928453Y-52371500D01*
X143860332Y-52351498D01*
X143813839Y-52297842D01*
X143803735Y-52227568D01*
X143833229Y-52162988D01*
X143839358Y-52156405D01*
X150316844Y-45678920D01*
X150379156Y-45644894D01*
X150405939Y-45642015D01*
X154895552Y-45642015D01*
X154903794Y-45642285D01*
X154971338Y-45646712D01*
X155063029Y-45635859D01*
X155066297Y-45635517D01*
X155093574Y-45633010D01*
X155152403Y-45627605D01*
X155152405Y-45627605D01*
X155158158Y-45627076D01*
X155163712Y-45625510D01*
X155163721Y-45625508D01*
X155163744Y-45625501D01*
X155183125Y-45621645D01*
X155188896Y-45620962D01*
X155277055Y-45593588D01*
X155280160Y-45592669D01*
X155363439Y-45569182D01*
X155363447Y-45569179D01*
X155369010Y-45567610D01*
X155374190Y-45565056D01*
X155374197Y-45565053D01*
X155374216Y-45565043D01*
X155392568Y-45557721D01*
X155392586Y-45557715D01*
X155398119Y-45555997D01*
X155403226Y-45553310D01*
X155403231Y-45553308D01*
X155479765Y-45513041D01*
X155482703Y-45511543D01*
X155560316Y-45473268D01*
X155565495Y-45470714D01*
X155570144Y-45467242D01*
X155586867Y-45456691D01*
X155586884Y-45456682D01*
X155591999Y-45453991D01*
X155596536Y-45450414D01*
X155596541Y-45450411D01*
X155664457Y-45396869D01*
X155667075Y-45394860D01*
X155736395Y-45343097D01*
X155736396Y-45343096D01*
X155741031Y-45339635D01*
X155799301Y-45276599D01*
X155802731Y-45273032D01*
X156711451Y-44364313D01*
X156717468Y-44358677D01*
X156764021Y-44317851D01*
X156768362Y-44314044D01*
X156825508Y-44241555D01*
X156827583Y-44238993D01*
X156882889Y-44172494D01*
X156882890Y-44172493D01*
X156886579Y-44168057D01*
X156889398Y-44163024D01*
X156889401Y-44163019D01*
X156889411Y-44163001D01*
X156900402Y-44146552D01*
X156900413Y-44146537D01*
X156903991Y-44141999D01*
X156946975Y-44060301D01*
X156948534Y-44057430D01*
X156990802Y-43981956D01*
X156990805Y-43981950D01*
X156993625Y-43976914D01*
X156995493Y-43971413D01*
X157003293Y-43953258D01*
X157005997Y-43948119D01*
X157033369Y-43859965D01*
X157034389Y-43856827D01*
X157062189Y-43774934D01*
X157062190Y-43774929D01*
X157064046Y-43769462D01*
X157064875Y-43763747D01*
X157064876Y-43763742D01*
X157064880Y-43763713D01*
X157069244Y-43744428D01*
X157070962Y-43738896D01*
X157081814Y-43647213D01*
X157082242Y-43643961D01*
X157093747Y-43564610D01*
X157095481Y-43552653D01*
X157092112Y-43466897D01*
X157092015Y-43461951D01*
X157092015Y-42036870D01*
X157112017Y-41968749D01*
X157117189Y-41961305D01*
X157150615Y-41916705D01*
X157201745Y-41780316D01*
X157208500Y-41718134D01*
X157208500Y-40121866D01*
X157208085Y-40118041D01*
X157207815Y-40115560D01*
X157201745Y-40059684D01*
X157150615Y-39923295D01*
X157063261Y-39806739D01*
X156946705Y-39719385D01*
X156810316Y-39668255D01*
X156748134Y-39661500D01*
X155051866Y-39661500D01*
X154989684Y-39668255D01*
X154853295Y-39719385D01*
X154736739Y-39806739D01*
X154649385Y-39923295D01*
X154613251Y-40019684D01*
X154610217Y-40027776D01*
X154567576Y-40084541D01*
X154501015Y-40109241D01*
X154431666Y-40094034D01*
X154403140Y-40072642D01*
X154244300Y-39913802D01*
X154239792Y-39910645D01*
X154239789Y-39910643D01*
X154147059Y-39845713D01*
X154056749Y-39782477D01*
X154051767Y-39780154D01*
X154051762Y-39780151D01*
X153854225Y-39688039D01*
X153854224Y-39688039D01*
X153849243Y-39685716D01*
X153714912Y-39649722D01*
X153654290Y-39612770D01*
X153623268Y-39548909D01*
X153631697Y-39478415D01*
X153676900Y-39423668D01*
X153747524Y-39402015D01*
X157285793Y-39402015D01*
X157353914Y-39422017D01*
X157386798Y-39453896D01*
X157387180Y-39453593D01*
X157389485Y-39456502D01*
X157389627Y-39456639D01*
X157389841Y-39456951D01*
X157389843Y-39456953D01*
X157392274Y-39460490D01*
X157395161Y-39463663D01*
X157395162Y-39463664D01*
X157525134Y-39606502D01*
X157576582Y-39663043D01*
X157579877Y-39665798D01*
X157579878Y-39665799D01*
X157586133Y-39671029D01*
X157786675Y-39838707D01*
X157790316Y-39840991D01*
X158015024Y-39981951D01*
X158015028Y-39981953D01*
X158018664Y-39984234D01*
X158143461Y-40040582D01*
X158264345Y-40095164D01*
X158264349Y-40095166D01*
X158268257Y-40096930D01*
X158331393Y-40115632D01*
X158526723Y-40173491D01*
X158526727Y-40173492D01*
X158530836Y-40174709D01*
X158535070Y-40175357D01*
X158535075Y-40175358D01*
X158797298Y-40215483D01*
X158797300Y-40215483D01*
X158801540Y-40216132D01*
X158940912Y-40218322D01*
X159071071Y-40220367D01*
X159071077Y-40220367D01*
X159075362Y-40220434D01*
X159347235Y-40187534D01*
X159612127Y-40118041D01*
X159616087Y-40116401D01*
X159616092Y-40116399D01*
X159753013Y-40059684D01*
X159865136Y-40013241D01*
X160101582Y-39875073D01*
X160317089Y-39706094D01*
X160337760Y-39684764D01*
X160504686Y-39512509D01*
X160507669Y-39509431D01*
X160510202Y-39505983D01*
X160510206Y-39505978D01*
X160667257Y-39292178D01*
X160669795Y-39288723D01*
X160697154Y-39238334D01*
X160798418Y-39051830D01*
X160798419Y-39051828D01*
X160800468Y-39048054D01*
X160897269Y-38791877D01*
X160958407Y-38524933D01*
X160982751Y-38252161D01*
X160983193Y-38210000D01*
X160964567Y-37936778D01*
X160909032Y-37668612D01*
X160817617Y-37410465D01*
X160692013Y-37167112D01*
X160682040Y-37152921D01*
X160573936Y-36999105D01*
X160534545Y-36943057D01*
X160400365Y-36798662D01*
X160351046Y-36745588D01*
X160351043Y-36745585D01*
X160348125Y-36742445D01*
X160344810Y-36739731D01*
X160344806Y-36739728D01*
X160188560Y-36611842D01*
X160136205Y-36568990D01*
X159902704Y-36425901D01*
X159898768Y-36424173D01*
X159655873Y-36317549D01*
X159655869Y-36317548D01*
X159651945Y-36315825D01*
X159388566Y-36240800D01*
X159384324Y-36240196D01*
X159384318Y-36240195D01*
X159133547Y-36204505D01*
X159117443Y-36202213D01*
X158973589Y-36201460D01*
X158847877Y-36200802D01*
X158847871Y-36200802D01*
X158843591Y-36200780D01*
X158839347Y-36201339D01*
X158839343Y-36201339D01*
X158720302Y-36217011D01*
X158572078Y-36236525D01*
X158567938Y-36237658D01*
X158567936Y-36237658D01*
X158533923Y-36246963D01*
X158307928Y-36308788D01*
X158303980Y-36310472D01*
X158059982Y-36414546D01*
X158059978Y-36414548D01*
X158056030Y-36416232D01*
X157978788Y-36462460D01*
X157824725Y-36554664D01*
X157824721Y-36554667D01*
X157821043Y-36556868D01*
X157607318Y-36728094D01*
X157418808Y-36926742D01*
X157390948Y-36965514D01*
X157334957Y-37009159D01*
X157288628Y-37017985D01*
X147512657Y-37017985D01*
X147444536Y-36997983D01*
X147409571Y-36964437D01*
X147394545Y-36943057D01*
X147382618Y-36930222D01*
X147211046Y-36745588D01*
X147211043Y-36745585D01*
X147208125Y-36742445D01*
X147204810Y-36739731D01*
X147204806Y-36739728D01*
X147048560Y-36611842D01*
X146996205Y-36568990D01*
X146762704Y-36425901D01*
X146758768Y-36424173D01*
X146515873Y-36317549D01*
X146515869Y-36317548D01*
X146511945Y-36315825D01*
X146248566Y-36240800D01*
X146244324Y-36240196D01*
X146244318Y-36240195D01*
X145993547Y-36204505D01*
X145977443Y-36202213D01*
X145833589Y-36201460D01*
X145707877Y-36200802D01*
X145707871Y-36200802D01*
X145703591Y-36200780D01*
X145699347Y-36201339D01*
X145699343Y-36201339D01*
X145580302Y-36217011D01*
X145432078Y-36236525D01*
X145427938Y-36237658D01*
X145427936Y-36237658D01*
X145393923Y-36246963D01*
X145167928Y-36308788D01*
X145163980Y-36310472D01*
X144919982Y-36414546D01*
X144919978Y-36414548D01*
X144916030Y-36416232D01*
X144838788Y-36462460D01*
X144684725Y-36554664D01*
X144684721Y-36554667D01*
X144681043Y-36556868D01*
X144467318Y-36728094D01*
X144394880Y-36804428D01*
X144296366Y-36908240D01*
X144278808Y-36926742D01*
X144119002Y-37149136D01*
X143990857Y-37391161D01*
X143989385Y-37395184D01*
X143989383Y-37395188D01*
X143982314Y-37414506D01*
X143896743Y-37648337D01*
X143838404Y-37915907D01*
X143816917Y-38188918D01*
X143832682Y-38462320D01*
X143833507Y-38466525D01*
X143833508Y-38466533D01*
X143844127Y-38520657D01*
X143885405Y-38731053D01*
X143886792Y-38735103D01*
X143886793Y-38735108D01*
X143907605Y-38795895D01*
X143974112Y-38990144D01*
X144097160Y-39234799D01*
X144099586Y-39238328D01*
X144099589Y-39238334D01*
X144212085Y-39402015D01*
X144252274Y-39460490D01*
X144255161Y-39463663D01*
X144255162Y-39463664D01*
X144385134Y-39606502D01*
X144436582Y-39663043D01*
X144439877Y-39665798D01*
X144439878Y-39665799D01*
X144446133Y-39671029D01*
X144646675Y-39838707D01*
X144650316Y-39840991D01*
X144875024Y-39981951D01*
X144875028Y-39981953D01*
X144878664Y-39984234D01*
X145003461Y-40040582D01*
X145124345Y-40095164D01*
X145124349Y-40095166D01*
X145128257Y-40096930D01*
X145191393Y-40115632D01*
X145386723Y-40173491D01*
X145386727Y-40173492D01*
X145390836Y-40174709D01*
X145395070Y-40175357D01*
X145395075Y-40175358D01*
X145657298Y-40215483D01*
X145657300Y-40215483D01*
X145661540Y-40216132D01*
X145800912Y-40218322D01*
X145931071Y-40220367D01*
X145931077Y-40220367D01*
X145935362Y-40220434D01*
X146207235Y-40187534D01*
X146472127Y-40118041D01*
X146476087Y-40116401D01*
X146476092Y-40116399D01*
X146613013Y-40059684D01*
X146725136Y-40013241D01*
X146961582Y-39875073D01*
X147177089Y-39706094D01*
X147197760Y-39684764D01*
X147364686Y-39512509D01*
X147367669Y-39509431D01*
X147401289Y-39463664D01*
X147408812Y-39453422D01*
X147465260Y-39410363D01*
X147510359Y-39402015D01*
X148554407Y-39402015D01*
X148622528Y-39422017D01*
X148669021Y-39475673D01*
X148679125Y-39545947D01*
X148649631Y-39610527D01*
X148587018Y-39649722D01*
X148456239Y-39684764D01*
X148445947Y-39688510D01*
X148248489Y-39780586D01*
X148238994Y-39786069D01*
X148186952Y-39822509D01*
X148178576Y-39832988D01*
X148185644Y-39846434D01*
X148887188Y-40547978D01*
X148901132Y-40555592D01*
X148902965Y-40555461D01*
X148909580Y-40551210D01*
X149615077Y-39845713D01*
X149621507Y-39833938D01*
X149612211Y-39821923D01*
X149561006Y-39786069D01*
X149551511Y-39780586D01*
X149354053Y-39688510D01*
X149343761Y-39684764D01*
X149212982Y-39649722D01*
X149152359Y-39612770D01*
X149121338Y-39548910D01*
X149129766Y-39478415D01*
X149174969Y-39423668D01*
X149245593Y-39402015D01*
X151052476Y-39402015D01*
X151120597Y-39422017D01*
X151167090Y-39475673D01*
X151177194Y-39545947D01*
X151147700Y-39610527D01*
X151085088Y-39649722D01*
X150950757Y-39685716D01*
X150945776Y-39688039D01*
X150945775Y-39688039D01*
X150748238Y-39780151D01*
X150748233Y-39780154D01*
X150743251Y-39782477D01*
X150652941Y-39845713D01*
X150560211Y-39910643D01*
X150560208Y-39910645D01*
X150555700Y-39913802D01*
X150393802Y-40075700D01*
X150390645Y-40080208D01*
X150390643Y-40080211D01*
X150319453Y-40181881D01*
X150262477Y-40263251D01*
X150260153Y-40268235D01*
X150258829Y-40270528D01*
X150207447Y-40319521D01*
X150137733Y-40332957D01*
X150071822Y-40306571D01*
X150040591Y-40270528D01*
X150033934Y-40258998D01*
X149997491Y-40206952D01*
X149987012Y-40198576D01*
X149973566Y-40205644D01*
X149272022Y-40907188D01*
X149264408Y-40921132D01*
X149264539Y-40922965D01*
X149268790Y-40929580D01*
X149974287Y-41635077D01*
X149986062Y-41641507D01*
X149998077Y-41632211D01*
X150033934Y-41581002D01*
X150040591Y-41569472D01*
X150091973Y-41520479D01*
X150161687Y-41507042D01*
X150227598Y-41533429D01*
X150258829Y-41569472D01*
X150260153Y-41571765D01*
X150262477Y-41576749D01*
X150265631Y-41581253D01*
X150359084Y-41714717D01*
X150393802Y-41764300D01*
X150555700Y-41926198D01*
X150560208Y-41929355D01*
X150560211Y-41929357D01*
X150605838Y-41961305D01*
X150743251Y-42057523D01*
X150748233Y-42059846D01*
X150748238Y-42059849D01*
X150944765Y-42151490D01*
X150950757Y-42154284D01*
X150956065Y-42155706D01*
X150956067Y-42155707D01*
X151166598Y-42212119D01*
X151166600Y-42212119D01*
X151171913Y-42213543D01*
X151400000Y-42233498D01*
X151628087Y-42213543D01*
X151633400Y-42212119D01*
X151633402Y-42212119D01*
X151843933Y-42155707D01*
X151843935Y-42155706D01*
X151849243Y-42154284D01*
X151855235Y-42151490D01*
X152051762Y-42059849D01*
X152051767Y-42059846D01*
X152056749Y-42057523D01*
X152194162Y-41961305D01*
X152239789Y-41929357D01*
X152239792Y-41929355D01*
X152244300Y-41926198D01*
X152310905Y-41859593D01*
X152373217Y-41825567D01*
X152444032Y-41830632D01*
X152489095Y-41859593D01*
X152555700Y-41926198D01*
X152560208Y-41929355D01*
X152560211Y-41929357D01*
X152605838Y-41961305D01*
X152743251Y-42057523D01*
X152748233Y-42059846D01*
X152748238Y-42059849D01*
X152944765Y-42151490D01*
X152950757Y-42154284D01*
X152956065Y-42155706D01*
X152956067Y-42155707D01*
X153166598Y-42212119D01*
X153166600Y-42212119D01*
X153171913Y-42213543D01*
X153400000Y-42233498D01*
X153628087Y-42213543D01*
X153633400Y-42212119D01*
X153633402Y-42212119D01*
X153843933Y-42155707D01*
X153843935Y-42155706D01*
X153849243Y-42154284D01*
X153855235Y-42151490D01*
X154051762Y-42059849D01*
X154051767Y-42059846D01*
X154056749Y-42057523D01*
X154194162Y-41961305D01*
X154239789Y-41929357D01*
X154239792Y-41929355D01*
X154244300Y-41926198D01*
X154403140Y-41767358D01*
X154465452Y-41733332D01*
X154536267Y-41738397D01*
X154593103Y-41780944D01*
X154610216Y-41812223D01*
X154649385Y-41916705D01*
X154682811Y-41961305D01*
X154707659Y-42027811D01*
X154707985Y-42036870D01*
X154707985Y-42944061D01*
X154687983Y-43012182D01*
X154671080Y-43033157D01*
X154483155Y-43221081D01*
X154420843Y-43255106D01*
X154394060Y-43257985D01*
X149904448Y-43257985D01*
X149896207Y-43257715D01*
X149879074Y-43256592D01*
X149828662Y-43253288D01*
X149736971Y-43264141D01*
X149733703Y-43264483D01*
X149706426Y-43266990D01*
X149647597Y-43272395D01*
X149647595Y-43272395D01*
X149641842Y-43272924D01*
X149636288Y-43274490D01*
X149636279Y-43274492D01*
X149636256Y-43274499D01*
X149616875Y-43278355D01*
X149611104Y-43279038D01*
X149522945Y-43306412D01*
X149519840Y-43307331D01*
X149436561Y-43330818D01*
X149436553Y-43330821D01*
X149430990Y-43332390D01*
X149425810Y-43334944D01*
X149425803Y-43334947D01*
X149425784Y-43334957D01*
X149407432Y-43342279D01*
X149407414Y-43342285D01*
X149401881Y-43344003D01*
X149396774Y-43346690D01*
X149396769Y-43346692D01*
X149320235Y-43386959D01*
X149317297Y-43388457D01*
X149234505Y-43429286D01*
X149229856Y-43432758D01*
X149213134Y-43443308D01*
X149208001Y-43446009D01*
X149203464Y-43449586D01*
X149135527Y-43503143D01*
X149132926Y-43505139D01*
X149058969Y-43560365D01*
X149055045Y-43564610D01*
X149000710Y-43623389D01*
X148997281Y-43626955D01*
X140289641Y-52334595D01*
X140227329Y-52368621D01*
X140200546Y-52371500D01*
X138031866Y-52371500D01*
X137969684Y-52378255D01*
X137833295Y-52429385D01*
X137716739Y-52516739D01*
X137711358Y-52523919D01*
X137711357Y-52523920D01*
X137652143Y-52602929D01*
X137595284Y-52645444D01*
X137524465Y-52650470D01*
X137462222Y-52616459D01*
X135848920Y-51003156D01*
X135814894Y-50940844D01*
X135812015Y-50914061D01*
X135812015Y-42006062D01*
X148178493Y-42006062D01*
X148187789Y-42018077D01*
X148238994Y-42053931D01*
X148248489Y-42059414D01*
X148445947Y-42151490D01*
X148456239Y-42155236D01*
X148666688Y-42211625D01*
X148677481Y-42213528D01*
X148894525Y-42232517D01*
X148905475Y-42232517D01*
X149122519Y-42213528D01*
X149133312Y-42211625D01*
X149343761Y-42155236D01*
X149354053Y-42151490D01*
X149551511Y-42059414D01*
X149561006Y-42053931D01*
X149613048Y-42017491D01*
X149621424Y-42007012D01*
X149614356Y-41993566D01*
X148912812Y-41292022D01*
X148898868Y-41284408D01*
X148897035Y-41284539D01*
X148890420Y-41288790D01*
X148184923Y-41994287D01*
X148178493Y-42006062D01*
X135812015Y-42006062D01*
X135812015Y-40925475D01*
X147587483Y-40925475D01*
X147606472Y-41142519D01*
X147608375Y-41153312D01*
X147664764Y-41363761D01*
X147668510Y-41374053D01*
X147760586Y-41571511D01*
X147766069Y-41581006D01*
X147802509Y-41633048D01*
X147812988Y-41641424D01*
X147826434Y-41634356D01*
X148527978Y-40932812D01*
X148535592Y-40918868D01*
X148535461Y-40917035D01*
X148531210Y-40910420D01*
X147825713Y-40204923D01*
X147813938Y-40198493D01*
X147801923Y-40207789D01*
X147766069Y-40258994D01*
X147760586Y-40268489D01*
X147668510Y-40465947D01*
X147664764Y-40476239D01*
X147608375Y-40686688D01*
X147606472Y-40697481D01*
X147587483Y-40914525D01*
X147587483Y-40925475D01*
X135812015Y-40925475D01*
X135812015Y-36726870D01*
X135832017Y-36658749D01*
X135837189Y-36651305D01*
X135841118Y-36646062D01*
X137398493Y-36646062D01*
X137407789Y-36658077D01*
X137458994Y-36693931D01*
X137468489Y-36699414D01*
X137665947Y-36791490D01*
X137676239Y-36795236D01*
X137886688Y-36851625D01*
X137897481Y-36853528D01*
X138114525Y-36872517D01*
X138125475Y-36872517D01*
X138342519Y-36853528D01*
X138353312Y-36851625D01*
X138563761Y-36795236D01*
X138574053Y-36791490D01*
X138771511Y-36699414D01*
X138781006Y-36693931D01*
X138833048Y-36657491D01*
X138841424Y-36647012D01*
X138834356Y-36633566D01*
X138132812Y-35932022D01*
X138118868Y-35924408D01*
X138117035Y-35924539D01*
X138110420Y-35928790D01*
X137404923Y-36634287D01*
X137398493Y-36646062D01*
X135841118Y-36646062D01*
X135870615Y-36606705D01*
X135921745Y-36470316D01*
X135928500Y-36408134D01*
X135928500Y-35565475D01*
X136807483Y-35565475D01*
X136826472Y-35782519D01*
X136828375Y-35793312D01*
X136884764Y-36003761D01*
X136888510Y-36014053D01*
X136980586Y-36211511D01*
X136986069Y-36221006D01*
X137022509Y-36273048D01*
X137032988Y-36281424D01*
X137046434Y-36274356D01*
X137747978Y-35572812D01*
X137754356Y-35561132D01*
X138484408Y-35561132D01*
X138484539Y-35562965D01*
X138488790Y-35569580D01*
X139194287Y-36275077D01*
X139206062Y-36281507D01*
X139218077Y-36272211D01*
X139253931Y-36221006D01*
X139259414Y-36211511D01*
X139351490Y-36014053D01*
X139355236Y-36003761D01*
X139411625Y-35793312D01*
X139413528Y-35782519D01*
X139432517Y-35565475D01*
X139432517Y-35554525D01*
X139413528Y-35337481D01*
X139411625Y-35326688D01*
X139355236Y-35116239D01*
X139351490Y-35105947D01*
X139259414Y-34908489D01*
X139253931Y-34898994D01*
X139217491Y-34846952D01*
X139207012Y-34838576D01*
X139193566Y-34845644D01*
X138492022Y-35547188D01*
X138484408Y-35561132D01*
X137754356Y-35561132D01*
X137755592Y-35558868D01*
X137755461Y-35557035D01*
X137751210Y-35550420D01*
X137045713Y-34844923D01*
X137033938Y-34838493D01*
X137021923Y-34847789D01*
X136986069Y-34898994D01*
X136980586Y-34908489D01*
X136888510Y-35105947D01*
X136884764Y-35116239D01*
X136828375Y-35326688D01*
X136826472Y-35337481D01*
X136807483Y-35554525D01*
X136807483Y-35565475D01*
X135928500Y-35565475D01*
X135928500Y-34711866D01*
X135921745Y-34649684D01*
X135870615Y-34513295D01*
X135840407Y-34472988D01*
X137398576Y-34472988D01*
X137405644Y-34486434D01*
X138107188Y-35187978D01*
X138121132Y-35195592D01*
X138122965Y-35195461D01*
X138129580Y-35191210D01*
X138835077Y-34485713D01*
X138841507Y-34473938D01*
X138832211Y-34461923D01*
X138781006Y-34426069D01*
X138771511Y-34420586D01*
X138574053Y-34328510D01*
X138563761Y-34324764D01*
X138353312Y-34268375D01*
X138342519Y-34266472D01*
X138125475Y-34247483D01*
X138114525Y-34247483D01*
X137897481Y-34266472D01*
X137886688Y-34268375D01*
X137676239Y-34324764D01*
X137665947Y-34328510D01*
X137468489Y-34420586D01*
X137458994Y-34426069D01*
X137406952Y-34462509D01*
X137398576Y-34472988D01*
X135840407Y-34472988D01*
X135783261Y-34396739D01*
X135666705Y-34309385D01*
X135530316Y-34258255D01*
X135468134Y-34251500D01*
X133771866Y-34251500D01*
X133709684Y-34258255D01*
X133573295Y-34309385D01*
X133456739Y-34396739D01*
X133369385Y-34513295D01*
X133318255Y-34649684D01*
X133311500Y-34711866D01*
X133311500Y-36408134D01*
X117348500Y-36408134D01*
X117348500Y-26034500D01*
X117368502Y-25966379D01*
X117422158Y-25919886D01*
X117474500Y-25908500D01*
X179705500Y-25908500D01*
X179773621Y-25928502D01*
G37*
%TD.AperFunction*%
%TD*%
M02*
